<svg width="26" height="26" viewBox="0 0 26 26" fill="none" xmlns="http://www.w3.org/2000/svg">
<mask id="mask0_128_1194" style="mask-type:alpha" maskUnits="userSpaceOnUse" x="5" y="5" width="16" height="16">
<rect x="5" y="5" width="16" height="16" fill="#D9D9D9"/>
</mask>
<g mask="url(#mask0_128_1194)">
<path d="M17.9601 18.6667C16.7038 18.6667 15.4416 18.3746 14.1736 17.7904C12.9057 17.2062 11.7397 16.382 10.6756 15.318C9.61581 14.2539 8.79381 13.0889 8.20959 11.823C7.62536 10.5573 7.33325 9.29621 7.33325 8.03987C7.33325 7.83987 7.39992 7.6721 7.53325 7.53654C7.66659 7.4011 7.83325 7.33337 8.03325 7.33337H10.2076C10.3759 7.33337 10.5244 7.38832 10.6531 7.49821C10.7818 7.60799 10.8636 7.74365 10.8986 7.90521L11.2808 9.86671C11.3072 10.0487 11.3016 10.2051 11.2641 10.3359C11.2264 10.4667 11.1589 10.5765 11.0614 10.6654L9.52175 12.1642C9.76953 12.618 10.0526 13.0473 10.3711 13.452C10.6894 13.8567 11.0341 14.2432 11.4051 14.6115C11.7709 14.9774 12.1598 15.3172 12.5718 15.6309C12.9838 15.9445 13.4286 16.2364 13.9064 16.5065L15.4024 14.9975C15.5068 14.889 15.6331 14.8129 15.7814 14.7692C15.9296 14.7257 16.0837 14.715 16.2436 14.7372L18.0948 15.1142C18.2631 15.1587 18.4005 15.2445 18.5069 15.3719C18.6134 15.4992 18.6666 15.6437 18.6666 15.8052V17.9667C18.6666 18.1667 18.5989 18.3334 18.4634 18.4667C18.3279 18.6 18.1601 18.6667 17.9601 18.6667Z" fill="#E02F21"/>
</g>
<circle cx="13" cy="13" r="12.5" stroke="#E02F21"/>
</svg>
