<svg width="30" height="30" viewBox="0 0 30 30" fill="none" xmlns="http://www.w3.org/2000/svg">
<mask id="mask0_2158_2185" style="mask-type:alpha" maskUnits="userSpaceOnUse" x="0" y="0" width="30" height="31">
<rect y="0.000244141" width="30" height="30" fill="#D9D9D9"/>
</mask>
<g mask="url(#mask0_2158_2185)">
<path d="M24.3003 25.6252C21.9447 25.6252 19.5781 25.0775 17.2006 23.9821C14.8233 22.8867 12.6391 21.3415 10.6478 19.3465C8.65677 17.3513 7.11354 15.1669 6.01813 12.7934C4.92271 10.42 4.375 8.05556 4.375 5.69993C4.375 5.32139 4.5 5.00597 4.75 4.75368C5 4.50139 5.3125 4.37524 5.6875 4.37524H9.76438C10.08 4.37524 10.3584 4.47827 10.5997 4.68431C10.8409 4.89014 10.9944 5.14451 11.06 5.44743L11.7766 9.12524C11.8261 9.46649 11.8157 9.75972 11.7453 10.0049C11.6747 10.2501 11.548 10.4561 11.3653 10.6227L8.47844 13.4331C8.94302 14.2839 9.47385 15.0888 10.0709 15.8477C10.6678 16.6065 11.3141 17.3312 12.0097 18.0218C12.6955 18.7078 13.4247 19.3449 14.1972 19.9331C14.9697 20.5212 15.8039 21.0685 16.6997 21.5749L19.5047 18.7456C19.7003 18.542 19.9372 18.3993 20.2153 18.3174C20.4932 18.2358 20.7821 18.2158 21.0819 18.2574L24.5528 18.9643C24.8684 19.0476 25.126 19.2087 25.3256 19.4474C25.5252 19.6862 25.625 19.957 25.625 20.2599V24.3127C25.625 24.6877 25.4989 25.0002 25.2466 25.2502C24.9943 25.5002 24.6789 25.6252 24.3003 25.6252ZM7.59125 11.659L9.82219 9.52431C9.86219 9.49222 9.88823 9.44816 9.90031 9.39212C9.9124 9.33608 9.91042 9.28399 9.89438 9.23587L9.35094 6.44243C9.3349 6.37847 9.30688 6.33045 9.26688 6.29837C9.22688 6.26629 9.17479 6.25024 9.11063 6.25024H6.4375C6.38937 6.25024 6.34927 6.26629 6.31719 6.29837C6.28531 6.33045 6.26937 6.37056 6.26937 6.41868C6.33333 7.27285 6.47312 8.14056 6.68875 9.02181C6.90417 9.90326 7.205 10.7823 7.59125 11.659ZM18.4662 22.4618C19.2948 22.8481 20.159 23.1434 21.0588 23.3477C21.9587 23.5519 22.7997 23.6733 23.5816 23.7118C23.6297 23.7118 23.6698 23.6958 23.7019 23.6637C23.734 23.6316 23.75 23.5915 23.75 23.5434V20.9137C23.75 20.8495 23.734 20.7974 23.7019 20.7574C23.6698 20.7174 23.6218 20.6894 23.5578 20.6734L20.9328 20.1396C20.8847 20.1236 20.8426 20.1216 20.8066 20.1337C20.7705 20.1458 20.7324 20.1718 20.6922 20.2118L18.4662 22.4618Z" fill="#E02F21"/>
</g>
</svg>
