<svg width="30" height="30" viewBox="0 0 30 30" fill="none" xmlns="http://www.w3.org/2000/svg">
<mask id="mask0_2158_2179" style="mask-type:alpha" maskUnits="userSpaceOnUse" x="0" y="0" width="30" height="31">
<rect y="0.000244141" width="30" height="30" fill="#D9D9D9"/>
</mask>
<g mask="url(#mask0_2158_2179)">
<path d="M15 26.8752C13.359 26.8752 11.8158 26.5636 10.3706 25.9402C8.92542 25.3169 7.66833 24.471 6.59937 23.4024C5.53042 22.3339 4.68406 21.0773 4.06031 19.6327C3.43677 18.1882 3.125 16.6447 3.125 15.0024C3.125 13.3599 3.43667 11.8161 4.06 10.3709C4.68333 8.92566 5.52927 7.66858 6.59781 6.59962C7.66635 5.53066 8.92292 4.68431 10.3675 4.06056C11.8121 3.43701 13.3555 3.12524 14.9978 3.12524C16.6403 3.12524 18.1842 3.43701 19.6294 4.06056C21.0746 4.68389 22.3317 5.52993 23.4006 6.59868C24.4696 7.66743 25.3159 8.9242 25.9397 10.369C26.5632 11.8138 26.875 13.3575 26.875 15.0002V16.5243C26.875 17.6653 26.4832 18.6341 25.6997 19.4306C24.9161 20.227 23.9538 20.6252 22.8125 20.6252C22.0752 20.6252 21.3917 20.4449 20.7619 20.0843C20.1321 19.7237 19.6345 19.2276 19.2691 18.5962C18.7291 19.2406 18.0909 19.7398 17.3547 20.094C16.6182 20.4482 15.8333 20.6252 15 20.6252C13.4392 20.6252 12.1115 20.078 11.0169 18.9834C9.92229 17.8888 9.375 16.5611 9.375 15.0002C9.375 13.4394 9.92229 12.1117 11.0169 11.0171C12.1115 9.92253 13.4392 9.37524 15 9.37524C16.5608 9.37524 17.8885 9.92253 18.9831 11.0171C20.0777 12.1117 20.625 13.4394 20.625 15.0002V16.5243C20.625 17.1381 20.8361 17.6625 21.2584 18.0977C21.6807 18.5327 22.1987 18.7502 22.8125 18.7502C23.4263 18.7502 23.9443 18.5327 24.3666 18.0977C24.7889 17.6625 25 17.1381 25 16.5243V15.0002C25 12.2086 24.0312 9.84399 22.0938 7.90649C20.1562 5.96899 17.7917 5.00024 15 5.00024C12.2083 5.00024 9.84375 5.96899 7.90625 7.90649C5.96875 9.84399 5 12.2086 5 15.0002C5 17.7919 5.96875 20.1565 7.90625 22.094C9.84375 24.0315 12.2083 25.0002 15 25.0002H21.25V26.8752H15ZM15 18.7502C16.0417 18.7502 16.9271 18.3857 17.6562 17.6565C18.3854 16.9273 18.75 16.0419 18.75 15.0002C18.75 13.9586 18.3854 13.0732 17.6562 12.344C16.9271 11.6148 16.0417 11.2502 15 11.2502C13.9583 11.2502 13.0729 11.6148 12.3438 12.344C11.6146 13.0732 11.25 13.9586 11.25 15.0002C11.25 16.0419 11.6146 16.9273 12.3438 17.6565C13.0729 18.3857 13.9583 18.7502 15 18.7502Z" fill="#E02F21"/>
</g>
</svg>
