<svg width="24" height="25" viewBox="0 0 24 25" fill="none" xmlns="http://www.w3.org/2000/svg">
<mask id="mask0_150_1751" style="mask-type:alpha" maskUnits="userSpaceOnUse" x="0" y="0" width="24" height="25">
<rect y="0.5" width="24" height="24" fill="#D9D9D9"/>
</mask>
<g mask="url(#mask0_150_1751)">
<path d="M13.3892 19.1971C12.2408 20.3454 10.8641 20.923 9.25896 20.9298C7.65383 20.9369 6.27809 20.3673 5.13176 19.2209C3.98542 18.0746 3.41461 16.6977 3.41932 15.0902C3.42392 13.4828 4.00039 12.105 5.14873 10.9566L11.506 4.59938C12.3219 3.78349 13.2987 3.37331 14.4364 3.36883C15.574 3.36424 16.5508 3.76988 17.3666 4.58576C18.1825 5.40165 18.5882 6.37846 18.5838 7.51619C18.5793 8.65393 18.1691 9.63074 17.3532 10.4466L11.3359 16.4639C10.8573 16.9425 10.282 17.1844 9.61004 17.1896C8.93794 17.1947 8.36229 16.9576 7.88311 16.4784C7.40381 15.9991 7.16298 15.4221 7.16062 14.7472C7.15827 14.0724 7.39874 13.4934 7.88205 13.0101L14.0896 6.80254L15.15 7.86303L8.94253 14.0705C8.75303 14.26 8.65716 14.4833 8.65492 14.7403C8.65268 14.9974 8.74631 15.2207 8.93581 15.4102C9.1252 15.5995 9.34841 15.6931 9.60544 15.6909C9.86248 15.6886 10.0857 15.5928 10.2753 15.4033L16.2993 9.37924C16.8142 8.84974 17.075 8.22619 17.0817 7.50859C17.0884 6.79099 16.8298 6.17027 16.306 5.64642C15.7844 5.12482 15.1613 4.86613 14.4368 4.87037C13.7121 4.87473 13.0887 5.13796 12.5666 5.66004L6.20939 12.0173C5.34719 12.8649 4.91568 13.8874 4.91485 15.0849C4.91391 16.2825 5.34059 17.3084 6.19489 18.1627C7.03706 19.0049 8.05258 19.4212 9.24146 19.4115C10.4301 19.4018 11.4591 18.9768 12.3285 18.1364L18.876 11.5889L19.9366 12.6496L13.3892 19.1971Z" fill="#E02F21"/>
</g>
</svg>
