<svg width="24" height="25" viewBox="0 0 24 25" fill="none" xmlns="http://www.w3.org/2000/svg">
<mask id="mask0_151_1792" style="mask-type:alpha" maskUnits="userSpaceOnUse" x="0" y="0" width="24" height="25">
<rect y="0.5" width="24" height="24" fill="#D9D9D9"/>
</mask>
<g mask="url(#mask0_151_1792)">
<path d="M6.30775 22C5.80258 22 5.375 21.825 5.025 21.475C4.675 21.125 4.5 20.6974 4.5 20.1923V4.80775C4.5 4.30258 4.675 3.875 5.025 3.525C5.375 3.175 5.80258 3 6.30775 3H14.25L19.5 8.25V20.1923C19.5 20.6974 19.325 21.125 18.975 21.475C18.625 21.825 18.1974 22 17.6923 22H6.30775ZM13.5 9V4.5H6.30775C6.23075 4.5 6.16025 4.53208 6.09625 4.59625C6.03208 4.66025 6 4.73075 6 4.80775V20.1923C6 20.2693 6.03208 20.3398 6.09625 20.4038C6.16025 20.4679 6.23075 20.5 6.30775 20.5H17.6923C17.7692 20.5 17.8398 20.4679 17.9038 20.4038C17.9679 20.3398 18 20.2693 18 20.1923V9H13.5Z" fill="#999999"/>
</g>
</svg>
