<svg width="55" height="56" viewBox="0 0 55 56" fill="none" xmlns="http://www.w3.org/2000/svg">
<path fill-rule="evenodd" clip-rule="evenodd" d="M0.0030652 55.2483L54.9619 55.2539L55.0008 0.802138L0.00195312 0.801025L0.0030652 55.2483Z" fill="#E02F21"/>
<path fill-rule="evenodd" clip-rule="evenodd" d="M9.16602 23.4862C9.27722 23.6475 9.2105 23.5629 9.38843 23.7153C10.892 24.9831 11.398 25.161 12.9738 26.9181C13.8734 27.9189 14.5663 28.6696 15.3414 29.8373C15.9156 30.6761 16.4424 31.5464 16.9194 32.444C18.9356 36.3363 20.2089 40.7579 20.1589 45.9001H35.143C35.0896 39.6502 37.1526 33.2858 40.7946 28.6941L41.7532 27.5219C41.9098 27.3378 42.0765 27.1626 42.2525 26.997L43.8361 25.4212C44.1964 25.0453 45.7356 23.7976 46.1582 23.5629C46.008 23.206 45.6155 22.6944 45.3942 22.3574L39.7759 13.9168L39.7326 13.8745L39.6881 13.8334C38.9241 14.2849 38.3669 14.8098 37.7053 15.3458C37.0436 15.8818 36.4608 16.4345 35.877 16.9917C33.7496 19.0145 31.2819 22.1072 29.8128 24.8162C29.4125 25.5536 29.0344 26.3053 28.6563 27.1316C28.4695 27.5408 28.3149 27.939 28.1492 28.3638C28.058 28.5973 27.989 28.7708 27.9123 28.9932C27.8211 29.2601 27.7811 29.4825 27.6031 29.6794C27.0115 27.0004 24.3503 22.7356 22.72 20.6437C21.7139 19.3473 20.6136 18.1266 19.4283 16.9917C18.4563 16.0731 16.7426 14.5218 15.6183 13.8345C15.5704 13.8711 15.5271 13.9132 15.4893 13.9602L9.16602 23.4862Z" fill="#FCFDFE"/>
</svg>
