<svg width="55" height="76" viewBox="0 0 55 76" fill="none" xmlns="http://www.w3.org/2000/svg">
<g clip-path="url(#clip0_1301_5410)">
<path fill-rule="evenodd" clip-rule="evenodd" d="M0.0030652 63.2483L54.9619 63.2539L55.0008 8.80214L0.00195312 8.80103L0.0030652 63.2483Z" fill="#E32124"/>
<path fill-rule="evenodd" clip-rule="evenodd" d="M9.16602 31.4862C9.27722 31.6475 9.2105 31.5629 9.38843 31.7153C10.892 32.9831 11.398 33.161 12.9738 34.9181C13.8734 35.9189 14.5663 36.6696 15.3414 37.8373C15.9156 38.6761 16.4424 39.5464 16.9194 40.444C18.9356 44.3363 20.2089 48.7579 20.1589 53.9001H35.143C35.0896 47.6502 37.1526 41.2858 40.7946 36.6941L41.7532 35.5219C41.9098 35.3378 42.0765 35.1626 42.2525 34.997L43.8361 33.4212C44.1964 33.0453 45.7356 31.7976 46.1582 31.5629C46.008 31.206 45.6155 30.6944 45.3942 30.3574L39.7759 21.9168L39.7326 21.8745L39.6881 21.8334C38.9241 22.2849 38.3669 22.8098 37.7053 23.3458C37.0436 23.8818 36.4608 24.4345 35.877 24.9917C33.7496 27.0145 31.2819 30.1072 29.8128 32.8162C29.4125 33.5536 29.0344 34.3053 28.6563 35.1316C28.4695 35.5408 28.3149 35.939 28.1492 36.3638C28.058 36.5973 27.989 36.7708 27.9123 36.9932C27.8211 37.2601 27.7811 37.4825 27.6031 37.6794C27.0115 35.0004 24.3503 30.7356 22.72 28.6437C21.7139 27.3473 20.6136 26.1266 19.4283 24.9917C18.4563 24.0731 16.7426 22.5218 15.6183 21.8345C15.5704 21.8711 15.5271 21.9132 15.4893 21.9602L9.16602 31.4862Z" fill="#FCFDFE"/>
<path fill-rule="evenodd" clip-rule="evenodd" d="M53.9174 4.18371L54.032 3.98242L53.8418 4.10253L53.9174 4.18371Z" fill="#B7B8B9"/>
<path fill-rule="evenodd" clip-rule="evenodd" d="M4.33557 0.00334978V2.5033H4.13873C4.09971 2.10243 3.983 1.71299 3.7951 1.35675C3.62611 1.06946 3.38042 0.834944 3.08559 0.679493C2.79561 0.516155 2.46869 0.42964 2.13588 0.428163C1.79784 0.414956 1.46808 0.534723 1.2173 0.761786C1.10522 0.857116 1.0148 0.975285 0.952088 1.10839C0.889374 1.24149 0.855813 1.38645 0.853652 1.53357C0.854301 1.75597 0.935712 1.97056 1.08274 2.13743C1.30516 2.40284 1.83043 2.75834 2.65855 3.20391C3.14047 3.44827 3.60394 3.7274 4.04531 4.03908C4.28433 4.22263 4.47957 4.45699 4.61692 4.72523C4.74843 4.98161 4.81704 5.26559 4.81709 5.55373C4.81821 5.82153 4.76191 6.08646 4.65199 6.33066C4.54207 6.57486 4.38108 6.79267 4.17988 6.9694C3.7558 7.36678 3.21014 7.56547 2.5429 7.56547C2.34427 7.56647 2.14594 7.55009 1.95016 7.51654C1.71782 7.46431 1.48871 7.39858 1.26401 7.31971C1.05158 7.23889 0.830747 7.18219 0.605659 7.15067C0.566819 7.14869 0.527988 7.15478 0.491621 7.16856C0.455253 7.18234 0.422137 7.20352 0.394365 7.23074C0.328129 7.33 0.289726 7.44521 0.283157 7.56436H0.0774227V5.08777H0.27426C0.366562 5.606 0.491115 5.99522 0.646806 6.25211C0.822397 6.52978 1.07143 6.75341 1.36632 6.89823C1.69247 7.0703 2.05628 7.15858 2.42502 7.15512C2.86985 7.15512 3.22238 7.03724 3.47815 6.80259C3.59948 6.6998 3.69703 6.57188 3.76404 6.42768C3.83105 6.28348 3.86593 6.12643 3.86627 5.96742C3.86297 5.77801 3.81293 5.59236 3.72059 5.42695C3.60652 5.22705 3.45153 5.05348 3.26575 4.91762C2.89847 4.66838 2.51836 4.43861 2.12698 4.22924C1.66625 3.98592 1.22362 3.70978 0.802497 3.40297C0.560303 3.2199 0.35788 2.98948 0.207536 2.72572C0.0706677 2.47323 0.000613207 2.18995 0.00402518 1.90278C0.0019652 1.64932 0.05408 1.39835 0.15688 1.16666C0.25968 0.934982 0.410792 0.727935 0.600099 0.559388C1.01483 0.181254 1.56172 -0.0184839 2.12253 0.00334978C2.54537 0.0124689 2.96179 0.108624 3.34582 0.285817C3.47723 0.353276 3.61955 0.396949 3.76618 0.414818C3.84812 0.416857 3.92772 0.387405 3.9886 0.332525C4.06564 0.236416 4.11488 0.121028 4.13094 -0.00109863L4.33557 0.00334978Z" fill="black"/>
<path fill-rule="evenodd" clip-rule="evenodd" d="M8.66045 7.20512V7.40196H5.55887V7.20512H5.81575C6.11602 7.20512 6.33287 7.11727 6.46854 6.9449C6.55417 6.83369 6.59643 6.5579 6.59643 6.12419V1.44123C6.59643 1.07536 6.57308 0.832922 6.52748 0.717266C6.48148 0.617881 6.40305 0.537096 6.30507 0.488178C6.15469 0.404753 5.9855 0.361115 5.81353 0.361402H5.55664V0.163452H8.66045V0.360289H8.40022C8.10552 0.360289 7.89089 0.447032 7.75633 0.620516C7.66736 0.731724 7.62399 1.00752 7.62399 1.44123V6.11974C7.62399 6.48561 7.64735 6.72804 7.69294 6.8437C7.73771 6.94393 7.8165 7.02508 7.91536 7.07279C8.06268 7.15691 8.22946 7.201 8.39911 7.20068L8.66045 7.20512Z" fill="black"/>
<path fill-rule="evenodd" clip-rule="evenodd" d="M8.88281 0.163452H10.8278L15.2617 5.59817V1.41899C15.2617 0.974157 15.2105 0.695025 15.1104 0.583817C14.9781 0.434799 14.7668 0.361402 14.4788 0.361402H14.2241V0.163452H16.7786V0.360289H16.5206C16.2092 0.360289 15.9912 0.453704 15.86 0.638309C15.7821 0.749516 15.7421 1.01308 15.7421 1.41676V7.51539H15.5497L10.7856 1.68589V6.1442C10.7856 6.58903 10.8345 6.86817 10.9313 6.97937C11.0677 7.12765 11.2786 7.20179 11.564 7.20179H11.822V7.39863H9.27315V7.20179H9.52782C9.84031 7.20179 10.0605 7.10949 10.1951 6.92377C10.2729 6.81256 10.3129 6.549 10.3129 6.14531V1.11539C10.171 0.93747 10.0111 0.774621 9.83586 0.629412C9.68852 0.532428 9.52779 0.457498 9.35878 0.406996C9.20516 0.370396 9.04731 0.354685 8.88948 0.360289L8.88281 0.163452Z" fill="black"/>
<path fill-rule="evenodd" clip-rule="evenodd" d="M23.4873 0.00330958L23.6508 2.45989H23.4873C23.2649 1.7248 22.9546 1.19323 22.5465 0.871842C22.1298 0.542934 21.6115 0.369516 21.0808 0.381416C20.6208 0.374872 20.1688 0.501971 19.7797 0.747289C19.3938 0.990834 19.0902 1.37895 18.8678 1.91386C18.6453 2.44877 18.5341 3.11157 18.5341 3.90448C18.5202 4.48745 18.6266 5.06704 18.8466 5.60707C19.0374 6.06494 19.3673 6.45125 19.7897 6.71136C20.2229 6.97107 20.7203 7.104 21.2254 7.09503C21.657 7.10409 22.0836 7.00061 22.4631 6.79477C22.8212 6.59459 23.2141 6.1961 23.6419 5.59928L23.8076 5.71049C23.4503 6.35401 23.0306 6.82405 22.5487 7.1206C22.0291 7.4271 21.4337 7.58125 20.8306 7.56543C19.6355 7.56543 18.7087 7.1206 18.0504 6.23094C17.556 5.55411 17.2977 4.73356 17.3153 3.89558C17.3084 3.20212 17.4747 2.51791 17.799 1.90496C18.1027 1.31988 18.5653 0.832297 19.1335 0.498184C19.6947 0.16801 20.3352 -0.00307148 20.9863 0.00330958C21.5232 0.00706072 22.0516 0.138574 22.5276 0.386976C22.6244 0.447697 22.7327 0.487825 22.8457 0.504857C22.939 0.505062 23.0285 0.46827 23.0948 0.402545C23.196 0.289798 23.2642 0.151243 23.2916 0.00219727L23.4873 0.00330958Z" fill="black"/>
<path fill-rule="evenodd" clip-rule="evenodd" d="M26.48 0.559351V3.41739H28.0736C28.4866 3.41739 28.762 3.35548 28.8999 3.23167C29.0856 3.0682 29.1868 2.78017 29.2091 2.3687H29.4059V4.89089H29.2091C29.1881 4.65868 29.1381 4.43002 29.0601 4.2103C28.9903 4.08078 28.8796 3.97795 28.7453 3.91782C28.5333 3.83377 28.3059 3.79585 28.0781 3.80662H26.48V6.19758C26.469 6.3932 26.4832 6.58942 26.5223 6.78142C26.5515 6.8521 26.6041 6.9106 26.6713 6.94712C26.7999 6.99925 26.9389 7.02058 27.0772 7.0094H28.3005C28.5995 7.02073 28.8988 6.99193 29.1902 6.92377C29.3917 6.85711 29.5741 6.74264 29.7217 6.59015C29.9955 6.29167 30.2237 5.95441 30.399 5.58928H30.6214L29.9975 7.40196H24.4171V7.20512H24.674C24.8438 7.20525 25.0109 7.16281 25.16 7.08168C25.2139 7.05659 25.2623 7.02092 25.3022 6.9768C25.3422 6.93267 25.3728 6.88098 25.3924 6.82479C25.446 6.59385 25.4662 6.35642 25.4525 6.11974V1.41899C25.4525 0.960812 25.4069 0.678344 25.3146 0.572697C25.1856 0.430351 24.9721 0.360289 24.6729 0.360289H24.416V0.163452H29.9953L30.072 1.75706H29.8652C29.7907 1.37339 29.7084 1.10983 29.6172 0.96526C29.5205 0.815294 29.3799 0.698792 29.2146 0.631637C28.9697 0.565924 28.7161 0.538908 28.4629 0.551567L26.48 0.559351Z" fill="black"/>
<path fill-rule="evenodd" clip-rule="evenodd" d="M34.8633 0.872969L36.6304 0.0211182H36.8072V6.11975C36.8072 6.52566 36.8239 6.78032 36.8583 6.88041C36.8764 6.93084 36.9043 6.97713 36.9406 7.01649C36.977 7.05585 37.0208 7.08748 37.0696 7.1095C37.1808 7.16176 37.3955 7.1929 37.7247 7.20069V7.39753H34.9945V7.20069C35.337 7.1929 35.5561 7.16399 35.6551 7.11172C35.7468 7.06879 35.8207 6.99526 35.8642 6.90376C35.902 6.81591 35.922 6.55457 35.922 6.11975V2.21636C35.9338 1.87778 35.9163 1.53882 35.8697 1.20326C35.8542 1.1063 35.8059 1.01759 35.7329 0.951926C35.6653 0.898502 35.5811 0.870204 35.4949 0.871857C35.3001 0.887949 35.1108 0.944377 34.9389 1.03756L34.8633 0.872969Z" fill="black"/>
<path fill-rule="evenodd" clip-rule="evenodd" d="M41.1494 3.75666C40.5726 3.28736 40.2019 2.91073 40.0373 2.62678C39.8753 2.35824 39.7892 2.05076 39.7882 1.73712C39.787 1.50773 39.8351 1.28076 39.9293 1.07161C40.0235 0.862457 40.1616 0.676023 40.3343 0.524959C40.6983 0.184663 41.1802 0.014886 41.78 0.0156274C42.366 0.0156274 42.8353 0.173542 43.1923 0.490484C43.5493 0.807426 43.7272 1.16552 43.7272 1.57142C43.7176 1.86958 43.6176 2.15776 43.4403 2.3977C43.2479 2.67794 42.8476 3.00934 42.2393 3.38745C42.8672 3.87157 43.2828 4.2519 43.4859 4.52844C43.7441 4.85525 43.8864 5.25852 43.8907 5.67499C43.8927 5.92132 43.8418 6.16521 43.7412 6.3901C43.6407 6.61499 43.4929 6.81561 43.308 6.97834C42.9187 7.33866 42.4087 7.51881 41.7777 7.51881C41.0897 7.51881 40.5537 7.30418 40.1697 6.87492C39.9002 6.60292 39.7379 6.24276 39.7128 5.86068C39.6877 5.4786 39.8013 5.10029 40.0329 4.79534C40.2479 4.48099 40.6186 4.13402 41.145 3.75443M41.9835 3.18282C42.4127 2.7973 42.6845 2.49296 42.7986 2.26981C42.916 2.03489 42.9748 1.77505 42.9699 1.51248C42.979 1.3519 42.9557 1.19113 42.9012 1.03979C42.8467 0.888452 42.7623 0.749657 42.6529 0.631718C42.5393 0.524466 42.4052 0.441297 42.2586 0.387213C42.112 0.333128 41.956 0.309246 41.8 0.317C41.4735 0.302953 41.1544 0.416637 40.9103 0.633942C40.803 0.724842 40.7168 0.837937 40.6574 0.965423C40.5981 1.09291 40.5671 1.23175 40.5667 1.37236C40.5691 1.56641 40.6179 1.75706 40.709 1.9284C40.8131 2.12673 40.9504 2.30577 41.1149 2.45775L41.9835 3.18282ZM40.5622 4.53511C40.2881 4.75544 40.0637 5.03137 39.9039 5.3447C39.7613 5.64004 39.6886 5.96424 39.6915 6.29219C39.6915 6.74888 39.8172 7.11476 40.0685 7.38981C40.1892 7.52403 40.3376 7.63036 40.5036 7.70142C40.6695 7.77248 40.8489 7.80655 41.0293 7.80128C41.3678 7.81809 41.6994 7.70196 41.9535 7.47767C42.1325 7.51262 42.3176 7.4998 42.4901 7.44051C42.6626 7.38121 42.8165 7.27753 42.9362 7.13989C43.0559 7.00224 43.1373 6.8355 43.1721 6.65643C43.2069 6.47736 43.1939 6.29229 43.1345 6.11982C43.1382 5.8757 43.0672 5.63627 42.931 5.43367C42.6782 5.05927 42.167 4.56921 41.3974 3.9635" fill="black"/>
<path fill-rule="evenodd" clip-rule="evenodd" d="M46.6065 3.75666C46.0297 3.28736 45.659 2.91073 45.4944 2.62678C45.3323 2.35824 45.2463 2.05076 45.2453 1.73712C45.244 1.50773 45.2921 1.28076 45.3863 1.07161C45.4806 0.862457 45.6187 0.676023 45.7913 0.524959C46.1553 0.184663 46.6372 0.014886 47.237 0.0156274C47.8231 0.0156274 48.2924 0.173542 48.6493 0.490484C49.0063 0.807426 49.1842 1.16552 49.1842 1.57142C49.1747 1.86958 49.0746 2.15776 48.8973 2.3977C48.7049 2.67794 48.3046 3.00934 47.6963 3.38745C48.3242 3.87157 48.7398 4.2519 48.9429 4.52844C49.2015 4.85511 49.3443 5.25839 49.3488 5.67499C49.3509 5.92132 49.2999 6.16521 49.1994 6.3901C49.0988 6.61499 48.951 6.81561 48.7661 6.97834C48.3769 7.33866 47.8668 7.51881 47.2359 7.51881C46.5479 7.51881 46.0119 7.30418 45.6278 6.87492C45.3583 6.60292 45.1961 6.24276 45.1709 5.86068C45.1458 5.4786 45.2595 5.10029 45.491 4.79534C45.706 4.48099 46.0767 4.13402 46.6031 3.75443M47.4416 3.18282C47.8709 2.7973 48.1426 2.49296 48.2568 2.26981C48.3741 2.03489 48.4329 1.77505 48.428 1.51248C48.4372 1.3519 48.4138 1.19113 48.3594 1.03979C48.3049 0.888452 48.2205 0.749657 48.1111 0.631718C47.9963 0.523211 47.8605 0.439319 47.7121 0.385198C47.5637 0.331077 47.4058 0.307869 47.2481 0.317C46.9216 0.302834 46.6025 0.416534 46.3585 0.633942C46.2512 0.724842 46.1649 0.837937 46.1056 0.965423C46.0462 1.09291 46.0153 1.23175 46.0148 1.37236C46.0175 1.56637 46.0663 1.75697 46.1572 1.9284C46.2613 2.12673 46.3986 2.30577 46.5631 2.45775L47.4416 3.18282ZM46.0193 4.53511C45.7451 4.75544 45.5207 5.03137 45.3609 5.3447C45.2183 5.64004 45.1457 5.96424 45.1485 6.29219C45.1485 6.74888 45.2742 7.11476 45.5255 7.38981C45.6462 7.52403 45.7947 7.63036 45.9606 7.70142C46.1265 7.77248 46.3059 7.80655 46.4863 7.80128C46.6604 7.87353 46.848 7.90705 47.0363 7.89953C47.2246 7.892 47.4089 7.8436 47.5766 7.75769C47.7443 7.67178 47.8913 7.55041 48.0074 7.40201C48.1235 7.2536 48.206 7.08172 48.249 6.89827C48.3598 6.79967 48.4482 6.67848 48.5082 6.54286C48.5682 6.40725 48.5985 6.26034 48.5971 6.11203C48.6008 5.86791 48.5298 5.62848 48.3936 5.42588C48.1407 5.05148 47.6296 4.56143 46.86 3.95572" fill="black"/>
<path fill-rule="evenodd" clip-rule="evenodd" d="M50.5499 7.55433V7.35749C50.9985 7.35369 51.4396 7.24273 51.8366 7.03388C52.2347 6.82481 52.6151 6.45893 52.9887 5.93848C53.3577 5.424 53.6222 4.84215 53.7672 4.22588C53.2111 4.58063 52.7085 4.75857 52.2592 4.75857C52.0127 4.76019 51.7687 4.70858 51.5439 4.60724C51.3192 4.5059 51.119 4.35723 50.957 4.17139C50.5944 3.77846 50.4135 3.25726 50.4143 2.60781C50.4069 2.00089 50.5978 1.40815 50.9581 0.919676C51.3929 0.321378 51.9589 0.0211182 52.6662 0.0211182C53.2593 0.0211182 53.7672 0.266887 54.1898 0.758425C54.7087 1.36636 54.9682 2.11664 54.9682 3.00927C54.969 3.79884 54.7611 4.57459 54.3655 5.25789C53.9648 5.95964 53.3996 6.55348 52.7185 6.98828C52.1663 7.35952 51.5156 7.55669 50.8502 7.55433H50.5499ZM53.8473 3.83109C53.9049 3.46303 53.9376 3.09149 53.9451 2.71902C53.9396 2.34195 53.8808 1.96756 53.7705 1.60694C53.6835 1.26463 53.5126 0.949342 53.2734 0.689476C53.1795 0.589288 53.0662 0.509234 52.9404 0.454177C52.8146 0.399119 52.679 0.370207 52.5417 0.369198C52.3802 0.371982 52.2215 0.411837 52.0778 0.485686C51.9342 0.559536 51.8094 0.665406 51.7132 0.795124C51.4752 1.07907 51.3562 1.50166 51.3562 2.06289C51.3562 2.81095 51.5137 3.39627 51.8288 3.81886C51.9221 3.95868 52.0482 4.07354 52.1961 4.15341C52.344 4.23327 52.5093 4.27572 52.6773 4.27704C52.8749 4.27234 53.0704 4.23476 53.2556 4.16583C53.4708 4.09148 53.6705 3.97841 53.845 3.83221" fill="black"/>
<path fill-rule="evenodd" clip-rule="evenodd" d="M0 65.0198H3.8578V71.8435C3.85712 71.8858 3.86198 71.9281 3.87225 71.9691C3.8883 72.0299 3.9215 72.0847 3.96789 72.1271C4.01985 72.1724 4.08089 72.2062 4.14694 72.226C4.20032 72.2405 4.23145 72.2338 4.64626 72.226C5.06106 72.2182 5.81505 72.226 6.22318 72.226V65.0198H9.84411V75.758H6.22318V73.2202H5.81394C4.96098 73.2202 3.25616 73.2202 2.38541 73.2147C1.51465 73.2091 1.47795 73.2147 1.37675 73.1969C1.23497 73.1799 1.09502 73.1501 0.95861 73.1079C0.810014 73.0558 0.669596 72.9828 0.541581 72.8911C0.417633 72.8074 0.30543 72.7075 0.207958 72.5941C0.124929 72.4975 0.06452 72.3835 0.031138 72.2605C0.0104214 72.1674 0.00071696 72.0723 0.00222421 71.9769V71.9769C0.00222421 71.958 0.00222421 71.9391 0.00222421 71.9224V65.0276L0 65.0198Z" fill="black"/>
<path fill-rule="evenodd" clip-rule="evenodd" d="M16.2708 67.5343V67.5243C16.2721 67.4749 16.2695 67.4254 16.263 67.3764C16.2531 67.2804 16.2272 67.1868 16.1863 67.0995C16.1355 67.0051 16.0582 66.9278 15.9638 66.8771C15.8727 66.8293 15.7765 66.792 15.6769 66.7659C15.6586 66.7618 15.6407 66.7558 15.6236 66.7481H11.3365V66.0608H17.9189C18.0308 66.0665 18.1409 66.0909 18.2447 66.1331C18.3939 66.1956 18.5339 66.2783 18.6606 66.3788C18.7811 66.4753 18.8881 66.5875 18.9787 66.7125C19.0514 66.8094 19.1043 66.9198 19.1344 67.0372C19.1644 67.1602 19.1863 67.285 19.2 67.4109C19.207 67.4584 19.2103 67.5063 19.21 67.5543V73.2126H11.2264V69.4315C11.2208 69.3566 11.2283 69.2814 11.2486 69.2091C11.2881 69.0698 11.353 68.939 11.4399 68.8232C11.5359 68.695 11.6551 68.5859 11.7913 68.5018C11.901 68.4377 12.0205 68.3922 12.145 68.3672C12.213 68.3525 12.2822 68.3436 12.3518 68.3405V68.3405H16.2674V67.5332L16.2708 67.5343ZM14.0956 69.4949V72.3629H16.2708V69.1101H14.4992L14.4559 69.1223C14.4049 69.1381 14.3555 69.1582 14.308 69.1824C14.2212 69.2211 14.1522 69.2909 14.1145 69.3781C14.1038 69.3988 14.0977 69.4216 14.0967 69.4448C14.0967 69.4615 14.0967 69.4804 14.0967 69.4949" fill="black"/>
<path fill-rule="evenodd" clip-rule="evenodd" d="M37.0613 67.5343V67.5243C37.0626 67.4749 37.06 67.4254 37.0535 67.3764C37.0436 67.2804 37.0176 67.1868 36.9767 67.0995C36.926 67.0051 36.8487 66.9278 36.7543 66.8771C36.6632 66.8293 36.5669 66.792 36.4674 66.7659C36.449 66.7618 36.4312 66.7558 36.414 66.7481H32.1247V66.0608H38.7071C38.819 66.0665 38.9292 66.0909 39.033 66.1331C39.1822 66.1956 39.3221 66.2783 39.4489 66.3788C39.5693 66.4753 39.6763 66.5875 39.7669 66.7125C39.84 66.8093 39.8933 66.9197 39.9237 67.0372C39.9537 67.1602 39.9756 67.285 39.9893 67.4109C39.9963 67.4584 39.9997 67.5063 39.9994 67.5543V73.2126H32.0135V69.4315C32.0079 69.3566 32.0154 69.2814 32.0358 69.2091C32.0752 69.0698 32.14 68.9389 32.2271 68.8232C32.3233 68.6949 32.4429 68.5859 32.5796 68.5018C32.6892 68.4377 32.8087 68.3922 32.9332 68.3672C33.0013 68.3525 33.0705 68.3436 33.1401 68.3405V68.3405H37.0546V67.5332L37.0613 67.5343ZM34.886 69.4949V72.3629H37.0613V69.1101H35.2897L35.2463 69.1223C35.1954 69.1381 35.1459 69.1582 35.0984 69.1824C35.0118 69.2212 34.9427 69.291 34.9049 69.3781C34.8942 69.3988 34.8881 69.4216 34.8871 69.4448C34.8871 69.4615 34.8871 69.4804 34.8871 69.4949" fill="black"/>
<path fill-rule="evenodd" clip-rule="evenodd" d="M40.4824 66.0551H41.7168V65.0198H44.5515V66.0551H46.3253V66.7869H44.5515V72.4429H46.3442V73.2158H44.5293H41.7168V66.7869H40.4824V66.0551Z" fill="black"/>
<path fill-rule="evenodd" clip-rule="evenodd" d="M46.9883 73.2158H54.9608V67.4909C54.9608 67.1074 54.8084 66.7397 54.5373 66.4686C54.2662 66.1975 53.8985 66.0452 53.5151 66.0452H48.434C48.0506 66.0452 47.6828 66.1975 47.4117 66.4686C47.1406 66.7397 46.9883 67.1074 46.9883 67.4909V73.2158ZM49.9164 72.215V67.1962C49.9167 67.0861 49.9604 66.9807 50.0381 66.9028C50.1158 66.8249 50.2212 66.7808 50.3312 66.7802H51.56C51.6701 66.7808 51.7754 66.8249 51.8531 66.9028C51.9308 66.9807 51.9745 67.0861 51.9748 67.1962V72.2127L49.9164 72.215Z" fill="black"/>
<path fill-rule="evenodd" clip-rule="evenodd" d="M20.6484 66.0608H29.3293C29.6856 66.0617 30.0271 66.2036 30.279 66.4556C30.531 66.7075 30.6729 67.049 30.6738 67.4053V73.2203H28.3385V67.4375C28.3379 67.2475 28.2621 67.0654 28.1277 66.931C27.9933 66.7966 27.8112 66.7208 27.6212 66.7203H26.8983V73.217H24.6108V66.7214H23.1762V73.2181H20.6484V66.0608Z" fill="black"/>
</g>
<defs>
<clipPath id="clip0_1301_5410">
<rect width="55" height="75.758" fill="white"/>
</clipPath>
</defs>
</svg>
