<svg width="373" height="260" viewBox="0 0 373 260" fill="none" xmlns="http://www.w3.org/2000/svg">
<rect width="373" height="260" fill="#FFF3F2"/>
<g opacity="0.6" clip-path="url(#clip0_816_6548)">
<path fill-rule="evenodd" clip-rule="evenodd" d="M143.004 170.197L230.938 170.206L231 83.0833L143.002 83.0815L143.004 170.197Z" fill="#E32124"/>
<path fill-rule="evenodd" clip-rule="evenodd" d="M157.666 119.378C157.844 119.636 157.737 119.501 158.022 119.744C160.428 121.773 161.237 122.058 163.758 124.869C165.198 126.47 166.306 127.671 167.547 129.54C168.465 130.882 169.308 132.274 170.071 133.71C173.297 139.938 175.335 147.013 175.255 155.24H199.229C199.144 145.24 202.444 135.057 208.272 127.71L209.806 125.835C210.056 125.541 210.323 125.26 210.604 124.995L213.138 122.474C213.715 121.872 216.177 119.876 216.853 119.501C216.613 118.929 215.985 118.111 215.631 117.572L206.642 104.067L206.573 103.999L206.501 103.933C205.279 104.656 204.387 105.496 203.329 106.353C202.27 107.211 201.338 108.095 200.404 108.987C197 112.223 193.051 117.172 190.701 121.506C190.06 122.686 189.455 123.888 188.85 125.211C188.552 125.865 188.304 126.502 188.039 127.182C187.893 127.556 187.783 127.833 187.66 128.189C187.514 128.616 187.45 128.972 187.165 129.287C186.219 125.001 181.961 118.177 179.352 114.83C177.743 112.756 175.982 110.803 174.086 108.987C172.53 107.517 169.789 105.035 167.99 103.935C167.913 103.994 167.844 104.061 167.783 104.136L157.666 119.378Z" fill="#FCFDFE"/>
<path fill-rule="evenodd" clip-rule="evenodd" d="M229.269 75.6938L229.453 75.3717L229.148 75.5639L229.269 75.6938Z" fill="#B7B8B9"/>
<path fill-rule="evenodd" clip-rule="evenodd" d="M149.938 69.0053V73.0052H149.624C149.561 72.3638 149.374 71.7407 149.074 71.1707C148.803 70.7111 148.41 70.3358 147.939 70.0871C147.475 69.8258 146.951 69.6874 146.419 69.685C145.878 69.6639 145.35 69.8555 144.949 70.2188C144.77 70.3713 144.625 70.5604 144.525 70.7733C144.425 70.9863 144.371 71.2182 144.367 71.4536C144.368 71.8095 144.499 72.1528 144.734 72.4198C145.09 72.8445 145.93 73.4133 147.255 74.1262C148.026 74.5172 148.768 74.9638 149.474 75.4625C149.856 75.7561 150.169 76.1311 150.389 76.5603C150.599 76.9705 150.709 77.4249 150.709 77.8859C150.711 78.3144 150.621 78.7383 150.445 79.129C150.269 79.5197 150.011 79.8682 149.689 80.151C149.011 80.7868 148.138 81.1047 147.07 81.1047C146.752 81.1063 146.435 81.0801 146.122 81.0264C145.75 80.9428 145.383 80.8377 145.024 80.7115C144.684 80.5821 144.331 80.4914 143.971 80.441C143.908 80.4378 143.846 80.4476 143.788 80.4696C143.73 80.4917 143.677 80.5256 143.633 80.5691C143.527 80.7279 143.465 80.9123 143.455 81.1029H143.125V77.1404H143.44C143.588 77.9695 143.787 78.5923 144.036 79.0033C144.317 79.4476 144.716 79.8054 145.188 80.0371C145.71 80.3124 146.292 80.4536 146.882 80.4481C147.593 80.4481 148.157 80.2595 148.567 79.8841C148.761 79.7196 148.917 79.5149 149.024 79.2842C149.131 79.0535 149.187 78.8022 149.188 78.5478C149.182 78.2447 149.102 77.9477 148.955 77.683C148.772 77.3632 148.524 77.0855 148.227 76.8681C147.639 76.4693 147.031 76.1017 146.405 75.7667C145.668 75.3774 144.959 74.9356 144.286 74.4447C143.898 74.1518 143.574 73.7831 143.334 73.3611C143.115 72.9571 143.003 72.5039 143.008 72.0444C143.005 71.6388 143.088 71.2373 143.253 70.8666C143.417 70.4959 143.659 70.1646 143.962 69.8949C144.625 69.2899 145.5 68.9704 146.398 69.0053C147.074 69.0199 147.74 69.1737 148.355 69.4572C148.565 69.5652 148.793 69.635 149.027 69.6636C149.159 69.6669 149.286 69.6198 149.383 69.532C149.507 69.3782 149.585 69.1936 149.611 68.9982L149.938 69.0053Z" fill="black"/>
<path fill-rule="evenodd" clip-rule="evenodd" d="M156.855 80.5281V80.8431H151.892V80.5281H152.303C152.784 80.5281 153.131 80.3876 153.348 80.1118C153.485 79.9339 153.552 79.4926 153.552 78.7986V71.3059C153.552 70.7205 153.515 70.3326 153.442 70.1476C153.368 69.9886 153.243 69.8593 153.086 69.781C152.846 69.6476 152.575 69.5777 152.3 69.5782H151.889V69.2615H156.855V69.5764H156.438C155.967 69.5764 155.623 69.7152 155.408 69.9928C155.266 70.1707 155.196 70.612 155.196 71.3059V78.7915C155.196 79.3769 155.234 79.7648 155.307 79.9499C155.378 80.1102 155.504 80.2401 155.663 80.3164C155.898 80.451 156.165 80.5215 156.437 80.521L156.855 80.5281Z" fill="black"/>
<path fill-rule="evenodd" clip-rule="evenodd" d="M157.211 69.2615H160.323L167.417 77.957V71.2703C167.417 70.5586 167.335 70.112 167.175 69.9341C166.963 69.6956 166.625 69.5782 166.164 69.5782H165.757V69.2615H169.844V69.5764H169.431C168.933 69.5764 168.584 69.7259 168.374 70.0212C168.25 70.1992 168.186 70.6209 168.186 71.2668V81.0246H167.878L160.255 71.6974V78.8307C160.255 79.5424 160.334 79.989 160.488 80.1669C160.707 80.4042 161.044 80.5228 161.501 80.5228H161.914V80.8378H157.835V80.5228H158.243C158.743 80.5228 159.095 80.3751 159.311 80.078C159.435 79.9 159.499 79.4783 159.499 78.8325V70.7846C159.272 70.4999 159.016 70.2393 158.736 70.007C158.5 69.8518 158.243 69.7319 157.972 69.6511C157.727 69.5926 157.474 69.5674 157.222 69.5764L157.211 69.2615Z" fill="black"/>
<path fill-rule="evenodd" clip-rule="evenodd" d="M180.582 69.0053L180.843 72.9358H180.582C180.226 71.7597 179.729 70.9092 179.076 70.395C178.41 69.8687 177.58 69.5912 176.731 69.6103C175.995 69.5998 175.272 69.8032 174.649 70.1957C174.032 70.5854 173.546 71.2063 173.19 72.0622C172.834 72.9181 172.657 73.9785 172.657 75.2472C172.634 76.1799 172.804 77.1073 173.157 77.9713C173.462 78.7039 173.99 79.322 174.665 79.7382C175.359 80.1537 176.154 80.3664 176.963 80.3521C177.653 80.3666 178.336 80.201 178.943 79.8716C179.516 79.5514 180.145 78.9138 180.829 77.9589L181.094 78.1368C180.522 79.1664 179.851 79.9185 179.08 80.393C178.248 80.8834 177.296 81.13 176.331 81.1047C174.419 81.1047 172.936 80.393 171.883 78.9695C171.092 77.8866 170.678 76.5737 170.706 75.233C170.695 74.1234 170.961 73.0287 171.48 72.048C171.966 71.1118 172.706 70.3317 173.616 69.7971C174.513 69.2688 175.538 68.9951 176.58 69.0053C177.439 69.0113 178.284 69.2217 179.046 69.6192C179.201 69.7163 179.374 69.7805 179.555 69.8078C179.704 69.8081 179.848 69.7493 179.954 69.6441C180.116 69.4637 180.225 69.242 180.269 69.0035L180.582 69.0053Z" fill="black"/>
<path fill-rule="evenodd" clip-rule="evenodd" d="M185.367 69.8949V74.4678H187.917C188.577 74.4678 189.018 74.3687 189.239 74.1706C189.536 73.9091 189.698 73.4482 189.733 72.7899H190.048V76.8254H189.733C189.7 76.4538 189.62 76.088 189.495 75.7364C189.383 75.5292 189.206 75.3647 188.991 75.2685C188.652 75.134 188.288 75.0733 187.924 75.0905H185.367V78.9161C185.349 79.2291 185.372 79.543 185.434 79.8502C185.481 79.9633 185.565 80.0569 185.673 80.1153C185.879 80.1988 186.101 80.2329 186.322 80.215H188.28C188.758 80.2331 189.237 80.187 189.703 80.078C190.026 79.9713 190.317 79.7882 190.554 79.5442C190.992 79.0666 191.357 78.527 191.637 77.9428H191.993L190.995 80.8431H182.066V80.5281H182.477C182.749 80.5284 183.016 80.4604 183.255 80.3306C183.341 80.2905 183.419 80.2334 183.482 80.1628C183.546 80.0922 183.595 80.0095 183.627 79.9196C183.712 79.5501 183.745 79.1702 183.723 78.7915V71.2703C183.723 70.5372 183.65 70.0853 183.502 69.9163C183.296 69.6885 182.954 69.5764 182.475 69.5764H182.064V69.2615H190.991L191.114 71.8112H190.783C190.664 71.1974 190.532 70.7757 190.386 70.5444C190.232 70.3044 190.007 70.118 189.742 70.0106C189.35 69.9054 188.945 69.8622 188.539 69.8825L185.367 69.8949Z" fill="black"/>
<path fill-rule="evenodd" clip-rule="evenodd" d="M198.779 70.3968L201.607 69.0338H201.89V78.7916C201.89 79.4411 201.916 79.8485 201.971 80.0087C202 80.0894 202.045 80.1634 202.103 80.2264C202.161 80.2894 202.231 80.34 202.309 80.3752C202.487 80.4588 202.831 80.5087 203.357 80.5211V80.8361H198.989V80.5211C199.537 80.5087 199.888 80.4624 200.046 80.3788C200.193 80.3101 200.311 80.1924 200.381 80.046C200.441 79.9055 200.473 79.4873 200.473 78.7916V72.5462C200.492 72.0045 200.464 71.4621 200.39 70.9252C200.365 70.7701 200.288 70.6282 200.171 70.5231C200.062 70.4376 199.928 70.3924 199.79 70.395C199.478 70.4207 199.175 70.511 198.9 70.6601L198.779 70.3968Z" fill="black"/>
<path fill-rule="evenodd" clip-rule="evenodd" d="M208.839 75.0106C207.916 74.2597 207.323 73.6571 207.059 73.2028C206.8 72.7731 206.662 72.2811 206.661 71.7793C206.659 71.4123 206.736 71.0491 206.887 70.7145C207.037 70.3798 207.258 70.0815 207.534 69.8398C208.117 69.2954 208.888 69.0237 209.848 69.0249C210.785 69.0249 211.536 69.2776 212.107 69.7847C212.678 70.2918 212.963 70.8647 212.963 71.5142C212.948 71.9912 212.788 72.4523 212.504 72.8362C212.196 73.2846 211.556 73.8148 210.582 74.4198C211.587 75.1944 212.252 75.8029 212.577 76.2454C212.99 76.7683 213.218 77.4135 213.225 78.0799C213.228 78.474 213.146 78.8642 212.986 79.2241C212.825 79.5839 212.588 79.9049 212.292 80.1653C211.67 80.7418 210.853 81.03 209.844 81.03C208.743 81.03 207.886 80.6866 207.271 79.9998C206.84 79.5646 206.58 78.9883 206.54 78.377C206.5 77.7657 206.682 77.1604 207.052 76.6724C207.396 76.1695 207.989 75.6143 208.832 75.007M210.173 74.0924C210.86 73.4756 211.295 72.9886 211.477 72.6316C211.665 72.2557 211.759 71.84 211.751 71.4199C211.766 71.1629 211.729 70.9057 211.642 70.6636C211.554 70.4214 211.419 70.1994 211.244 70.0107C211.063 69.839 210.848 69.706 210.613 69.6194C210.379 69.5329 210.129 69.4947 209.88 69.5071C209.357 69.4846 208.847 69.6665 208.456 70.0142C208.284 70.1596 208.146 70.3406 208.051 70.5446C207.957 70.7486 207.907 70.9707 207.906 71.1957C207.91 71.5062 207.988 71.8112 208.134 72.0853C208.301 72.4027 208.52 72.6891 208.784 72.9323L210.173 74.0924ZM207.899 76.2561C207.461 76.6086 207.102 77.0501 206.846 77.5514C206.618 78.024 206.501 78.5427 206.506 79.0674C206.506 79.7981 206.707 80.3835 207.109 80.8236C207.302 81.0384 207.54 81.2085 207.805 81.3222C208.071 81.4359 208.358 81.4904 208.647 81.4819C209.188 81.5088 209.719 81.323 210.125 80.9642C210.412 81.0201 210.708 80.9996 210.984 80.9047C211.26 80.8098 211.506 80.6439 211.698 80.4237C211.889 80.2035 212.019 79.9367 212.075 79.6502C212.131 79.3637 212.11 79.0676 212.015 78.7916C212.021 78.401 211.907 78.0179 211.689 77.6938C211.285 77.0947 210.467 76.3106 209.235 75.3415" fill="black"/>
<path fill-rule="evenodd" clip-rule="evenodd" d="M217.571 75.0106C216.648 74.2597 216.055 73.6571 215.792 73.2028C215.533 72.7731 215.395 72.2811 215.393 71.7793C215.391 71.4123 215.468 71.0491 215.619 70.7145C215.77 70.3798 215.991 70.0815 216.267 69.8398C216.849 69.2954 217.62 69.0237 218.58 69.0249C219.518 69.0249 220.269 69.2776 220.84 69.7847C221.411 70.2918 221.696 70.8647 221.696 71.5142C221.68 71.9912 221.52 72.4523 221.237 72.8362C220.929 73.2846 220.288 73.8148 219.315 74.4198C220.32 75.1944 220.984 75.8029 221.309 76.2454C221.723 76.7681 221.952 77.4133 221.959 78.0799C221.962 78.474 221.881 78.8642 221.72 79.2241C221.559 79.5839 221.322 79.9049 221.027 80.1653C220.404 80.7418 219.588 81.03 218.578 81.03C217.477 81.03 216.62 80.6866 216.005 79.9998C215.574 79.5646 215.314 78.9883 215.274 78.377C215.234 77.7657 215.416 77.1604 215.786 76.6724C216.13 76.1695 216.724 75.6143 217.566 75.007M218.907 74.0924C219.594 73.4756 220.029 72.9886 220.212 72.6316C220.399 72.2557 220.493 71.84 220.486 71.4199C220.5 71.1629 220.463 70.9057 220.376 70.6636C220.289 70.4214 220.154 70.1994 219.979 70.0107C219.795 69.837 219.578 69.7028 219.34 69.6162C219.103 69.5296 218.85 69.4925 218.598 69.5071C218.075 69.4844 217.565 69.6664 217.174 70.0142C217.003 70.1596 216.865 70.3406 216.77 70.5446C216.675 70.7486 216.625 70.9707 216.625 71.1957C216.629 71.5061 216.707 71.811 216.852 72.0853C217.019 72.4027 217.238 72.6891 217.502 72.9323L218.907 74.0924ZM216.632 76.2561C216.193 76.6086 215.834 77.0501 215.578 77.5514C215.35 78.024 215.234 78.5427 215.238 79.0674C215.238 79.7981 215.439 80.3835 215.842 80.8236C216.035 81.0384 216.272 81.2085 216.538 81.3222C216.803 81.4359 217.09 81.4904 217.379 81.4819C217.657 81.5975 217.958 81.6512 218.259 81.6391C218.56 81.6271 218.855 81.5497 219.123 81.4122C219.392 81.2747 219.627 81.0806 219.813 80.8431C219.998 80.6057 220.13 80.3306 220.199 80.0371C220.376 79.8794 220.518 79.6855 220.614 79.4685C220.71 79.2515 220.758 79.0164 220.756 78.7792C220.762 78.3886 220.648 78.0055 220.43 77.6813C220.026 77.0823 219.208 76.2982 217.977 75.329" fill="black"/>
<path fill-rule="evenodd" clip-rule="evenodd" d="M223.881 81.0869V80.772C224.599 80.7659 225.305 80.5884 225.94 80.2542C226.577 79.9197 227.186 79.3343 227.784 78.5016C228.374 77.6784 228.797 76.7475 229.029 75.7614C228.139 76.329 227.335 76.6137 226.616 76.6137C226.222 76.6163 225.831 76.5337 225.472 76.3716C225.112 76.2095 224.792 75.9716 224.533 75.6742C223.953 75.0456 223.663 74.2116 223.664 73.1725C223.653 72.2015 223.958 71.2531 224.534 70.4715C225.23 69.5142 226.136 69.0338 227.268 69.0338C228.216 69.0338 229.029 69.427 229.705 70.2135C230.536 71.1862 230.951 72.3867 230.951 73.8149C230.952 75.0782 230.619 76.3194 229.986 77.4126C229.345 78.5354 228.441 79.4856 227.351 80.1813C226.468 80.7753 225.426 81.0907 224.362 81.0869H223.881ZM229.157 75.1298C229.249 74.5409 229.302 73.9464 229.314 73.3505C229.305 72.7471 229.211 72.1481 229.034 71.5711C228.895 71.0234 228.622 70.519 228.239 70.1032C228.089 69.9429 227.908 69.8148 227.706 69.7267C227.505 69.6386 227.288 69.5924 227.068 69.5907C226.81 69.5952 226.556 69.659 226.326 69.7771C226.096 69.8953 225.897 70.0647 225.743 70.2722C225.362 70.7265 225.171 71.4027 225.171 72.3007C225.171 73.4975 225.424 74.4341 225.928 75.1102C226.077 75.3339 226.279 75.5177 226.515 75.6455C226.752 75.7733 227.016 75.8412 227.285 75.8433C227.601 75.8358 227.914 75.7756 228.211 75.6654C228.555 75.5464 228.874 75.3655 229.154 75.1316" fill="black"/>
<path fill-rule="evenodd" clip-rule="evenodd" d="M143 173.032H149.172V183.95C149.171 184.017 149.179 184.085 149.196 184.151C149.221 184.248 149.274 184.335 149.349 184.403C149.432 184.476 149.529 184.53 149.635 184.562C149.721 184.585 149.77 184.574 150.434 184.562C151.098 184.549 152.304 184.562 152.957 184.562V173.032H158.751V190.213H152.957V186.152H152.302C150.938 186.152 148.21 186.152 146.817 186.143C145.423 186.135 145.365 186.143 145.203 186.115C144.976 186.088 144.752 186.04 144.534 185.973C144.296 185.889 144.071 185.772 143.867 185.626C143.668 185.492 143.489 185.332 143.333 185.151C143.2 184.996 143.103 184.814 143.05 184.617C143.017 184.468 143.001 184.316 143.004 184.163V184.163C143.004 184.133 143.004 184.103 143.004 184.076V173.044L143 173.032Z" fill="black"/>
<path fill-rule="evenodd" clip-rule="evenodd" d="M169.033 177.055V177.039C169.035 176.96 169.031 176.881 169.02 176.802C169.005 176.649 168.963 176.499 168.898 176.359C168.816 176.208 168.693 176.084 168.542 176.003C168.396 175.927 168.242 175.867 168.083 175.825C168.053 175.819 168.025 175.809 167.997 175.797H161.138V174.697H171.67C171.849 174.706 172.025 174.745 172.191 174.813C172.43 174.913 172.654 175.045 172.857 175.206C173.049 175.36 173.221 175.54 173.366 175.74C173.482 175.895 173.567 176.072 173.615 176.259C173.663 176.456 173.698 176.656 173.72 176.857C173.731 176.933 173.736 177.01 173.736 177.087V186.14H160.962V180.09C160.953 179.97 160.965 179.85 160.997 179.734C161.061 179.512 161.164 179.302 161.303 179.117C161.457 178.912 161.648 178.737 161.866 178.603C162.041 178.5 162.232 178.427 162.432 178.387C162.54 178.364 162.651 178.35 162.763 178.345V178.345H169.028V177.053L169.033 177.055ZM165.553 180.192V184.781H169.033V179.576H166.198L166.129 179.596C166.048 179.621 165.968 179.653 165.892 179.692C165.754 179.754 165.643 179.865 165.583 180.005C165.566 180.038 165.556 180.074 165.554 180.112C165.554 180.138 165.554 180.169 165.554 180.192" fill="black"/>
<path fill-rule="evenodd" clip-rule="evenodd" d="M202.298 177.055V177.039C202.3 176.96 202.296 176.881 202.286 176.802C202.27 176.649 202.228 176.499 202.163 176.359C202.082 176.208 201.958 176.084 201.807 176.003C201.661 175.927 201.507 175.867 201.348 175.825C201.318 175.819 201.29 175.809 201.262 175.797H194.4V174.697H204.931C205.11 174.706 205.287 174.745 205.453 174.813C205.691 174.913 205.915 175.045 206.118 175.206C206.311 175.36 206.482 175.54 206.627 175.74C206.744 175.895 206.829 176.071 206.878 176.259C206.926 176.456 206.961 176.656 206.983 176.857C206.994 176.933 206.999 177.01 206.999 177.087V186.14H194.222V180.09C194.213 179.97 194.225 179.85 194.257 179.734C194.32 179.511 194.424 179.302 194.563 179.117C194.717 178.912 194.909 178.737 195.127 178.603C195.303 178.5 195.494 178.427 195.693 178.387C195.802 178.364 195.913 178.35 196.024 178.345V178.345H202.287V177.053L202.298 177.055ZM198.818 180.192V184.781H202.298V179.576H199.464L199.394 179.596C199.313 179.621 199.233 179.653 199.157 179.692C199.019 179.754 198.908 179.865 198.848 180.005C198.831 180.038 198.821 180.074 198.819 180.112C198.819 180.138 198.819 180.169 198.819 180.192" fill="black"/>
<path fill-rule="evenodd" clip-rule="evenodd" d="M207.773 174.688H209.748V173.032H214.284V174.688H217.122V175.859H214.284V184.909H217.152V186.145H214.248H209.748V175.859H207.773V174.688Z" fill="black"/>
<path fill-rule="evenodd" clip-rule="evenodd" d="M218.182 186.145H230.938V176.985C230.938 176.372 230.694 175.784 230.26 175.35C229.826 174.916 229.238 174.672 228.624 174.672H220.495C219.881 174.672 219.293 174.916 218.859 175.35C218.425 175.784 218.182 176.372 218.182 176.985V186.145ZM222.867 184.544V176.514C222.867 176.338 222.937 176.169 223.061 176.044C223.186 175.92 223.354 175.849 223.53 175.848H225.496C225.672 175.849 225.841 175.92 225.965 176.044C226.09 176.169 226.16 176.338 226.16 176.514V184.54L222.867 184.544Z" fill="black"/>
<path fill-rule="evenodd" clip-rule="evenodd" d="M176.037 174.697H189.927C190.497 174.699 191.043 174.926 191.446 175.329C191.849 175.732 192.076 176.278 192.078 176.848V186.152H188.341V176.9C188.34 176.596 188.219 176.304 188.004 176.089C187.789 175.874 187.498 175.753 187.193 175.752H186.037V186.147H182.377V175.754H180.082V186.149H176.037V174.697Z" fill="black"/>
</g>
<defs>
<clipPath id="clip0_816_6548">
<rect width="88" height="121.213" fill="white" transform="translate(143 69)"/>
</clipPath>
</defs>
</svg>
