<svg width="30" height="30" viewBox="0 0 30 30" fill="none" xmlns="http://www.w3.org/2000/svg">
<mask id="mask0_111_7898" style="mask-type:alpha" maskUnits="userSpaceOnUse" x="0" y="0" width="30" height="30">
<circle cx="15" cy="15" r="15" fill="#0077FF"/>
</mask>
<g mask="url(#mask0_111_7898)">
<path fill-rule="evenodd" clip-rule="evenodd" d="M19.5423 0H10.3327C1.92762 0 -0.0625 1.99012 -0.0625 10.3952V19.6048C-0.0625 28.0099 1.92762 30 10.3327 30H19.5423C27.9474 30 29.9375 28.0099 29.9375 19.6048V10.3952C29.9375 1.99012 27.9474 0 19.5423 0ZM23.8404 9.52721C24.4967 9.52721 24.6449 9.86595 24.4967 10.3317C24.2654 11.3992 22.3447 14.2308 21.7498 15.1078C21.6368 15.2745 21.5716 15.3705 21.575 15.3705C21.3421 15.7516 21.2574 15.921 21.575 16.3444C21.6898 16.501 21.9332 16.7399 22.2115 17.0129C22.4976 17.2937 22.8206 17.6105 23.0782 17.9111C24.0097 18.9697 24.7296 19.8589 24.9201 20.4729C25.0895 21.0868 24.7931 21.4044 24.1579 21.4044H21.9773C21.3994 21.4044 21.1015 21.0725 20.4666 20.3652C20.1944 20.062 19.8603 19.6897 19.4155 19.2449C18.1241 17.9958 17.5524 17.8264 17.2349 17.8264C16.7903 17.8264 16.6632 17.9323 16.6632 18.5674V20.5364C16.6632 21.0657 16.4939 21.3832 15.0965 21.3832C12.7888 21.3832 10.2271 19.9859 8.42752 17.3818C5.71757 13.571 4.97656 10.6916 4.97656 10.12C4.97656 9.80243 5.08242 9.50603 5.71756 9.50603H7.9194C8.46986 9.50603 8.68157 9.73892 8.89329 10.3529C9.97303 13.4651 11.7726 16.1962 12.5136 16.1962C12.7888 16.1962 12.9159 16.0692 12.9159 15.3705V12.1525C12.8636 11.2378 12.5452 10.8392 12.3091 10.5437C12.1626 10.3604 12.0478 10.2168 12.0478 10.0141C12.0478 9.76009 12.2596 9.50603 12.5983 9.50603H16.0281C16.4939 9.50603 16.6632 9.76009 16.6632 10.3106V14.6507C16.6632 15.1165 16.8538 15.2859 17.002 15.2859C17.2772 15.2859 17.5101 15.1165 18.0182 14.6084C19.5849 12.8511 20.707 10.1412 20.707 10.1412C20.8552 9.82361 21.1092 9.52721 21.6597 9.52721H23.8404Z" fill="#0077FF"/>
</g>
</svg>
