<svg version="1.1" xmlns="http://www.w3.org/2000/svg" xmlns:xlink="http://www.w3.org/1999/xlink">

    <symbol viewBox="0 0 26 26" id="header-search">
        <path d="M11.5227 19.7955C16.0916 19.7955 19.7955 16.0916 19.7955 11.5227C19.7955 6.95383 16.0916 3.25 11.5227 3.25C6.95383 3.25 3.25 6.95383 3.25 11.5227C3.25 16.0916 6.95383 19.7955 11.5227 19.7955Z" stroke-width="2" stroke-linecap="round" stroke-linejoin="round"/>
        <path d="M22.7647 22.7647L18.0375 18.0375" stroke-width="2" stroke-linecap="round" stroke-linejoin="round"/>
    </symbol>

    <symbol viewBox="0 0 20 20" id="slider-prev">
        <path d="M12.5 15L7.5 10L12.5 5" stroke-width="2" stroke-linecap="round" stroke-linejoin="round" />
    </symbol>

    <symbol viewBox="0 0 20 20" id="slider-next">
        <path d="M7.5 5L12.5 10L7.5 15" stroke-width="2" stroke-linecap="round" stroke-linejoin="round" />
    </symbol>

    <symbol viewBox="0 0 24 24" id="main-catalogue-link">
        <path d="M14 2H6C5.46957 2 4.96086 2.21071 4.58579 2.58579C4.21071 2.96086 4 3.46957 4 4V20C4 20.5304 4.21071 21.0391 4.58579 21.4142C4.96086 21.7893 5.46957 22 6 22H18C18.5304 22 19.0391 21.7893 19.4142 21.4142C19.7893 21.0391 20 20.5304 20 20V8L14 2Z" stroke-width="2" stroke-linecap="round" stroke-linejoin="round" />
        <path d="M14 2V8H20" stroke-width="2" stroke-linecap="round" stroke-linejoin="round" />
        <path d="M16 13H8" stroke-width="2" stroke-linecap="round" stroke-linejoin="round" />
        <path d="M16 17H8" stroke-width="2" stroke-linecap="round" stroke-linejoin="round" />
        <path d="M10 9H9H8" stroke-width="2" stroke-linecap="round" stroke-linejoin="round" />
    </symbol>

    <symbol viewBox="0 0 25 25" id="main-contacts-icon-address">
        <path d="M21.875 10.4166C21.875 17.7083 12.5 23.9583 12.5 23.9583C12.5 23.9583 3.125 17.7083 3.125 10.4166C3.125 7.93022 4.11272 5.54565 5.87087 3.7875C7.62903 2.02935 10.0136 1.04163 12.5 1.04163C14.9864 1.04163 17.371 2.02935 19.1291 3.7875C20.8873 5.54565 21.875 7.93022 21.875 10.4166Z" stroke-width="2" stroke-linecap="round" stroke-linejoin="round" />
        <path d="M12.5 13.5416C14.2259 13.5416 15.625 12.1425 15.625 10.4166C15.625 8.69074 14.2259 7.29163 12.5 7.29163C10.7741 7.29163 9.375 8.69074 9.375 10.4166C9.375 12.1425 10.7741 13.5416 12.5 13.5416Z" stroke-width="2" stroke-linecap="round" stroke-linejoin="round" />
    </symbol>

    <symbol viewBox="0 0 25 25" id="main-contacts-icon-phone">
        <path d="M22.9166 17.625V20.75C22.9178 21.0401 22.8584 21.3273 22.7422 21.5931C22.6259 21.8589 22.4555 22.0975 22.2417 22.2936C22.0279 22.4898 21.7755 22.6391 21.5007 22.732C21.2259 22.8249 20.9347 22.8595 20.6458 22.8334C17.4404 22.4851 14.3614 21.3898 11.6562 19.6354C9.13936 18.0361 7.00551 15.9023 5.4062 13.3854C3.64576 10.6679 2.5502 7.57397 2.20828 4.35419C2.18225 4.06613 2.21649 3.77581 2.30881 3.50171C2.40112 3.22761 2.5495 2.97574 2.7445 2.76212C2.93949 2.54851 3.17683 2.37784 3.4414 2.26098C3.70597 2.14412 3.99197 2.08363 4.2812 2.08335H7.4062C7.91173 2.07838 8.40182 2.25739 8.78512 2.58703C9.16842 2.91667 9.41878 3.37444 9.48953 3.87502C9.62143 4.87509 9.86605 5.85703 10.2187 6.8021C10.3589 7.17494 10.3892 7.58014 10.3061 7.96969C10.223 8.35923 10.03 8.7168 9.74995 9.00002L8.42703 10.3229C9.90991 12.9308 12.0692 15.0901 14.677 16.5729L16 15.25C16.2832 14.97 16.6407 14.7769 17.0303 14.6939C17.4198 14.6108 17.825 14.6411 18.1979 14.7813C19.1429 15.1339 20.1249 15.3785 21.125 15.5104C21.631 15.5818 22.0931 15.8367 22.4234 16.2266C22.7538 16.6165 22.9293 17.1142 22.9166 17.625Z" stroke-width="2" stroke-linecap="round" stroke-linejoin="round" />
    </symbol>

    <symbol viewBox="0 0 25 25" id="main-contacts-icon-email">
        <path d="M12.5 16.6667C14.8012 16.6667 16.6667 14.8012 16.6667 12.5C16.6667 10.1989 14.8012 8.33337 12.5 8.33337C10.1989 8.33337 8.33337 10.1989 8.33337 12.5C8.33337 14.8012 10.1989 16.6667 12.5 16.6667Z" stroke-width="2" stroke-linecap="round" stroke-linejoin="round" />
        <path d="M16.6667 8.33334V13.5417C16.6667 14.3705 16.996 15.1653 17.582 15.7514C18.1681 16.3374 18.9629 16.6667 19.7917 16.6667C20.6205 16.6667 21.4154 16.3374 22.0014 15.7514C22.5875 15.1653 22.9167 14.3705 22.9167 13.5417V12.5C22.9166 10.149 22.1211 7.86717 20.6597 6.02556C19.1983 4.18395 17.1569 2.89086 14.8674 2.35656C12.5779 1.82226 10.175 2.07817 8.04937 3.08268C5.92376 4.08718 4.20046 5.78121 3.15969 7.8893C2.11892 9.99739 1.82189 12.3956 2.31689 14.6939C2.81189 16.9922 4.06982 19.0555 5.88612 20.5482C7.70243 22.0409 9.97029 22.8754 12.321 22.9158C14.6716 22.9562 16.9668 22.2003 18.8334 20.7708" stroke-width="2" stroke-linecap="round" stroke-linejoin="round" />
    </symbol>

    <symbol viewBox="0 0 24 24" id="window-close">
        <path fill-rule="evenodd" clip-rule="evenodd" d="M13.4143 12.0002L18.7072 6.70725C19.0982 6.31625 19.0982 5.68425 18.7072 5.29325C18.3162 4.90225 17.6842 4.90225 17.2933 5.29325L12.0002 10.5862L6.70725 5.29325C6.31625 4.90225 5.68425 4.90225 5.29325 5.29325C4.90225 5.68425 4.90225 6.31625 5.29325 6.70725L10.5862 12.0002L5.29325 17.2933C4.90225 17.6842 4.90225 18.3162 5.29325 18.7072C5.48825 18.9022 5.74425 19.0002 6.00025 19.0002C6.25625 19.0002 6.51225 18.9022 6.70725 18.7072L12.0002 13.4143L17.2933 18.7072C17.4882 18.9022 17.7443 19.0002 18.0002 19.0002C18.2562 19.0002 18.5122 18.9022 18.7072 18.7072C19.0982 18.3162 19.0982 17.6842 18.7072 17.2933L13.4143 12.0002Z" />
    </symbol>

    <symbol viewBox="0 0 30 30" id="mobile-menu-link">
        <path d="M3.75 16.3235H26.25" stroke="#E02F21" stroke-width="2" stroke-linecap="round" stroke-linejoin="round" />
        <path d="M3.75 7.5H26.25" stroke="#E02F21" stroke-width="2" stroke-linecap="round" stroke-linejoin="round" />
        <path d="M3.75 25.1471H26.25" stroke="#E02F21" stroke-width="2" stroke-linecap="round" stroke-linejoin="round" />
    </symbol>

    <symbol viewBox="0 0 30 30" id="mobile-menu-close">
        <path d="M7.04504 8.36853L22.9549 24.2784" stroke="#E02F21" stroke-width="2" stroke-linecap="round" stroke-linejoin="round" />
        <path d="M22.955 8.36853L7.04505 24.2784" stroke="#E02F21" stroke-width="2" stroke-linecap="round" stroke-linejoin="round" />
    </symbol>

</svg>