<svg version="1.1" xmlns="http://www.w3.org/2000/svg" xmlns:xlink="http://www.w3.org/1999/xlink">

    <symbol viewBox="0 0 26 26" id="header-search">
        <path d="M11.5227 19.7955C16.0916 19.7955 19.7955 16.0916 19.7955 11.5227C19.7955 6.95383 16.0916 3.25 11.5227 3.25C6.95383 3.25 3.25 6.95383 3.25 11.5227C3.25 16.0916 6.95383 19.7955 11.5227 19.7955Z" stroke-width="2" stroke-linecap="round" stroke-linejoin="round"/>
        <path d="M22.7647 22.7647L18.0375 18.0375" stroke-width="2" stroke-linecap="round" stroke-linejoin="round"/>
    </symbol>

    <symbol viewBox="0 0 28 28" id="header-search-close">
        <path fill-rule="evenodd" clip-rule="evenodd" d="M15.8182 14.0003L22.6235 7.19503C23.1262 6.69231 23.1262 5.87975 22.6235 5.37703C22.1208 4.87432 21.3082 4.87432 20.8055 5.37703L14.0002 12.1823L7.19502 5.37703C6.69231 4.87432 5.87974 4.87432 5.37703 5.37703C4.87432 5.87975 4.87432 6.69231 5.37703 7.19503L12.1823 14.0003L5.37703 20.8055C4.87432 21.3083 4.87432 22.1208 5.37703 22.6235C5.62775 22.8743 5.95689 23.0002 6.28603 23.0002C6.61517 23.0002 6.94431 22.8743 7.19502 22.6235L14.0002 15.8183L20.8055 22.6235C21.0562 22.8743 21.3853 23.0002 21.7145 23.0002C22.0436 23.0002 22.3728 22.8743 22.6235 22.6235C23.1262 22.1208 23.1262 21.3083 22.6235 20.8055L15.8182 14.0003Z" />
    </symbol>

    <symbol viewBox="0 0 20 20" id="slider-prev">
        <path d="M12.5 15L7.5 10L12.5 5" stroke-width="2" stroke-linecap="round" stroke-linejoin="round" />
    </symbol>

    <symbol viewBox="0 0 20 20" id="slider-next">
        <path d="M7.5 5L12.5 10L7.5 15" stroke-width="2" stroke-linecap="round" stroke-linejoin="round" />
    </symbol>

    <symbol viewBox="0 0 24 24" id="main-catalogue-link">
        <path d="M14 2H6C5.46957 2 4.96086 2.21071 4.58579 2.58579C4.21071 2.96086 4 3.46957 4 4V20C4 20.5304 4.21071 21.0391 4.58579 21.4142C4.96086 21.7893 5.46957 22 6 22H18C18.5304 22 19.0391 21.7893 19.4142 21.4142C19.7893 21.0391 20 20.5304 20 20V8L14 2Z" stroke-width="2" stroke-linecap="round" stroke-linejoin="round" />
        <path d="M14 2V8H20" stroke-width="2" stroke-linecap="round" stroke-linejoin="round" />
        <path d="M16 13H8" stroke-width="2" stroke-linecap="round" stroke-linejoin="round" />
        <path d="M16 17H8" stroke-width="2" stroke-linecap="round" stroke-linejoin="round" />
        <path d="M10 9H9H8" stroke-width="2" stroke-linecap="round" stroke-linejoin="round" />
    </symbol>

    <symbol viewBox="0 0 25 25" id="main-contacts-icon-address">
        <path d="M21.875 10.4166C21.875 17.7083 12.5 23.9583 12.5 23.9583C12.5 23.9583 3.125 17.7083 3.125 10.4166C3.125 7.93022 4.11272 5.54565 5.87087 3.7875C7.62903 2.02935 10.0136 1.04163 12.5 1.04163C14.9864 1.04163 17.371 2.02935 19.1291 3.7875C20.8873 5.54565 21.875 7.93022 21.875 10.4166Z" stroke-width="2" stroke-linecap="round" stroke-linejoin="round" />
        <path d="M12.5 13.5416C14.2259 13.5416 15.625 12.1425 15.625 10.4166C15.625 8.69074 14.2259 7.29163 12.5 7.29163C10.7741 7.29163 9.375 8.69074 9.375 10.4166C9.375 12.1425 10.7741 13.5416 12.5 13.5416Z" stroke-width="2" stroke-linecap="round" stroke-linejoin="round" />
    </symbol>

    <symbol viewBox="0 0 25 25" id="main-contacts-icon-phone">
        <path d="M22.9166 17.625V20.75C22.9178 21.0401 22.8584 21.3273 22.7422 21.5931C22.6259 21.8589 22.4555 22.0975 22.2417 22.2936C22.0279 22.4898 21.7755 22.6391 21.5007 22.732C21.2259 22.8249 20.9347 22.8595 20.6458 22.8334C17.4404 22.4851 14.3614 21.3898 11.6562 19.6354C9.13936 18.0361 7.00551 15.9023 5.4062 13.3854C3.64576 10.6679 2.5502 7.57397 2.20828 4.35419C2.18225 4.06613 2.21649 3.77581 2.30881 3.50171C2.40112 3.22761 2.5495 2.97574 2.7445 2.76212C2.93949 2.54851 3.17683 2.37784 3.4414 2.26098C3.70597 2.14412 3.99197 2.08363 4.2812 2.08335H7.4062C7.91173 2.07838 8.40182 2.25739 8.78512 2.58703C9.16842 2.91667 9.41878 3.37444 9.48953 3.87502C9.62143 4.87509 9.86605 5.85703 10.2187 6.8021C10.3589 7.17494 10.3892 7.58014 10.3061 7.96969C10.223 8.35923 10.03 8.7168 9.74995 9.00002L8.42703 10.3229C9.90991 12.9308 12.0692 15.0901 14.677 16.5729L16 15.25C16.2832 14.97 16.6407 14.7769 17.0303 14.6939C17.4198 14.6108 17.825 14.6411 18.1979 14.7813C19.1429 15.1339 20.1249 15.3785 21.125 15.5104C21.631 15.5818 22.0931 15.8367 22.4234 16.2266C22.7538 16.6165 22.9293 17.1142 22.9166 17.625Z" stroke-width="2" stroke-linecap="round" stroke-linejoin="round" />
    </symbol>

    <symbol viewBox="0 0 25 25" id="main-contacts-icon-email">
        <path d="M12.5 16.6667C14.8012 16.6667 16.6667 14.8012 16.6667 12.5C16.6667 10.1989 14.8012 8.33337 12.5 8.33337C10.1989 8.33337 8.33337 10.1989 8.33337 12.5C8.33337 14.8012 10.1989 16.6667 12.5 16.6667Z" stroke-width="2" stroke-linecap="round" stroke-linejoin="round" />
        <path d="M16.6667 8.33334V13.5417C16.6667 14.3705 16.996 15.1653 17.582 15.7514C18.1681 16.3374 18.9629 16.6667 19.7917 16.6667C20.6205 16.6667 21.4154 16.3374 22.0014 15.7514C22.5875 15.1653 22.9167 14.3705 22.9167 13.5417V12.5C22.9166 10.149 22.1211 7.86717 20.6597 6.02556C19.1983 4.18395 17.1569 2.89086 14.8674 2.35656C12.5779 1.82226 10.175 2.07817 8.04937 3.08268C5.92376 4.08718 4.20046 5.78121 3.15969 7.8893C2.11892 9.99739 1.82189 12.3956 2.31689 14.6939C2.81189 16.9922 4.06982 19.0555 5.88612 20.5482C7.70243 22.0409 9.97029 22.8754 12.321 22.9158C14.6716 22.9562 16.9668 22.2003 18.8334 20.7708" stroke-width="2" stroke-linecap="round" stroke-linejoin="round" />
    </symbol>

    <symbol viewBox="0 0 24 24" id="window-close">
        <path fill-rule="evenodd" clip-rule="evenodd" d="M13.4143 12.0002L18.7072 6.70725C19.0982 6.31625 19.0982 5.68425 18.7072 5.29325C18.3162 4.90225 17.6842 4.90225 17.2933 5.29325L12.0002 10.5862L6.70725 5.29325C6.31625 4.90225 5.68425 4.90225 5.29325 5.29325C4.90225 5.68425 4.90225 6.31625 5.29325 6.70725L10.5862 12.0002L5.29325 17.2933C4.90225 17.6842 4.90225 18.3162 5.29325 18.7072C5.48825 18.9022 5.74425 19.0002 6.00025 19.0002C6.25625 19.0002 6.51225 18.9022 6.70725 18.7072L12.0002 13.4143L17.2933 18.7072C17.4882 18.9022 17.7443 19.0002 18.0002 19.0002C18.2562 19.0002 18.5122 18.9022 18.7072 18.7072C19.0982 18.3162 19.0982 17.6842 18.7072 17.2933L13.4143 12.0002Z" />
    </symbol>

    <symbol viewBox="0 0 30 30" id="mobile-menu-link">
        <path d="M3.75 16.3235H26.25" stroke="#E02F21" stroke-width="2" stroke-linecap="round" stroke-linejoin="round" />
        <path d="M3.75 7.5H26.25" stroke="#E02F21" stroke-width="2" stroke-linecap="round" stroke-linejoin="round" />
        <path d="M3.75 25.1471H26.25" stroke="#E02F21" stroke-width="2" stroke-linecap="round" stroke-linejoin="round" />
    </symbol>

    <symbol viewBox="0 0 30 30" id="mobile-menu-close">
        <path d="M7.04504 8.36853L22.9549 24.2784" stroke="#E02F21" stroke-width="2" stroke-linecap="round" stroke-linejoin="round" />
        <path d="M22.955 8.36853L7.04505 24.2784" stroke="#E02F21" stroke-width="2" stroke-linecap="round" stroke-linejoin="round" />
    </symbol>

    <symbol viewBox="0 0 24 24" id="up-link">
        <path d="M18 15L12 9L6 15" stroke-width="2" stroke-linecap="round" stroke-linejoin="round" />
    </symbol>

    <symbol viewBox="0 0 14 8" id="nav-arrow">
        <path d="M12 2L7 7L2 2" stroke-width="2" stroke-linecap="square" stroke-linejoin="round" />
    </symbol>

    <symbol viewBox="0 0 8 13" id="gallery-prev">
        <path d="M6.8627 1.22449L1.87988 6.5L6.8627 11.7755" stroke-width="2" />
    </symbol>

    <symbol viewBox="0 0 8 13" id="gallery-next">
        <path d="M1.1373 11.7755L6.12012 6.49999L1.1373 1.22448" stroke-width="2" />
    </symbol>

    <symbol viewBox="0 0 20 20" id="pager-prev">
        <path d="M12.5 15L7.5 10L12.5 5" stroke-width="2" stroke-linecap="round" stroke-linejoin="round" />
    </symbol>

    <symbol viewBox="0 0 20 20" id="pager-next">
        <path d="M7.5 5L12.5 10L7.5 15" stroke-width="2" stroke-linecap="round" stroke-linejoin="round" />
    </symbol>

    <symbol viewBox="0 0 30 30" id="icon-fb">
        <path d="M30 15.0914C30 6.75575 23.2852 0 15 0C6.71484 0 0 6.75575 0 15.0914C0 22.6253 5.48438 28.8681 12.6562 30V19.4537H8.84766V15.0914H12.6562V11.7666C12.6562 7.98487 14.8945 5.89507 18.3223 5.89507C19.9629 5.89507 21.6797 6.18982 21.6797 6.18982V9.90371H19.7871C17.9238 9.90371 17.3438 11.068 17.3438 12.2617V15.0914H21.5039L20.8389 19.4537H17.3438V30C24.5156 28.8681 30 22.6253 30 15.0914Z" />
    </symbol>

    <symbol viewBox="0 0 30 30" id="icon-twitter">
        <path fill-rule="evenodd" clip-rule="evenodd" d="M15 0C6.71573 0 0 6.71573 0 15C0 23.2843 6.71573 30 15 30C23.2843 30 30 23.2843 30 15C30 6.71573 23.2843 0 15 0ZM14.5822 12.7112L14.5508 12.1922C14.4563 10.847 15.2852 9.61822 16.5967 9.14155C17.0794 8.97207 17.8978 8.95089 18.4329 9.09918C18.6427 9.16274 19.0414 9.37459 19.3247 9.56526L19.8388 9.91481L20.4054 9.73474C20.7202 9.6394 21.1398 9.48052 21.3287 9.37459C21.5071 9.27926 21.6645 9.2263 21.6645 9.25807C21.6645 9.43815 21.2762 10.0525 20.951 10.3915C20.5103 10.8681 20.6362 10.9105 21.5281 10.5927C22.0632 10.4127 22.0737 10.4127 21.9687 10.6139C21.9058 10.7198 21.5805 11.0906 21.2343 11.4295C20.6467 12.0121 20.6152 12.0757 20.6152 12.5629C20.6152 13.315 20.2585 14.8827 19.9018 15.7407C19.2408 17.3508 17.8243 19.0138 16.4079 19.8506C14.4144 21.0264 11.7598 21.323 9.52499 20.6344C8.78005 20.4014 7.5 19.8082 7.5 19.7023C7.5 19.6705 7.88821 19.6282 8.36036 19.6176C9.34663 19.5964 10.3329 19.321 11.1723 18.8337L11.7388 18.4948L11.0883 18.2723C10.165 17.9545 9.33613 17.2237 9.12629 16.5351C9.06334 16.3127 9.08432 16.3021 9.67188 16.3021L10.2804 16.2915L9.76631 16.0479C9.15777 15.7407 8.60168 15.2217 8.32888 14.692C8.12953 14.3107 7.87772 13.3468 7.95116 13.2726C7.97215 13.2409 8.19248 13.3044 8.4443 13.3892C9.16826 13.654 9.26269 13.5904 8.843 13.1455C8.05609 12.3405 7.81477 11.1435 8.19248 10.0101L8.37085 9.5017L9.06334 10.1902C10.4798 11.5778 12.148 12.4041 14.0576 12.6477L14.5822 12.7112Z" />
    </symbol>

    <symbol viewBox="0 0 30 30" id="icon-vk">
        <path fill-rule="evenodd" clip-rule="evenodd" d="M19.5423 0H10.3327C1.92762 0 -0.0625 1.99012 -0.0625 10.3952V19.6048C-0.0625 28.0099 1.92762 30 10.3327 30H19.5423C27.9474 30 29.9375 28.0099 29.9375 19.6048V10.3952C29.9375 1.99012 27.9474 0 19.5423 0ZM23.8404 9.52717C24.4967 9.52717 24.6449 9.86591 24.4967 10.3317C24.2654 11.3991 22.3447 14.2307 21.7498 15.1078C21.6368 15.2744 21.5716 15.3705 21.575 15.3705C21.3421 15.7516 21.2574 15.921 21.575 16.3444C21.6898 16.5009 21.9332 16.7398 22.2115 17.0128C22.4976 17.2936 22.8206 17.6105 23.0782 17.9111C24.0097 18.9697 24.7296 19.8589 24.9201 20.4728C25.0895 21.0868 24.7931 21.4044 24.1579 21.4044H21.9773C21.3994 21.4044 21.1015 21.0725 20.4666 20.3652C20.1944 20.0619 19.8603 19.6896 19.4155 19.2449C18.1241 17.9958 17.5524 17.8264 17.2349 17.8264C16.7903 17.8264 16.6632 17.9322 16.6632 18.5674V20.5363C16.6632 21.0656 16.4939 21.3832 15.0965 21.3832C12.7888 21.3832 10.2271 19.9859 8.42752 17.3818C5.71757 13.5709 4.97656 10.6916 4.97656 10.12C4.97656 9.8024 5.08242 9.506 5.71756 9.506H7.9194C8.46986 9.506 8.68157 9.73888 8.89329 10.3529C9.97303 13.4651 11.7726 16.1962 12.5136 16.1962C12.7888 16.1962 12.9159 16.0692 12.9159 15.3705V12.1524C12.8636 11.2377 12.5452 10.8392 12.3091 10.5437C12.1626 10.3604 12.0478 10.2167 12.0478 10.0141C12.0478 9.76005 12.2596 9.506 12.5983 9.506H16.0281C16.4939 9.506 16.6632 9.76005 16.6632 10.3105V14.6507C16.6632 15.1164 16.8538 15.2858 17.002 15.2858C17.2772 15.2858 17.5101 15.1164 18.0182 14.6083C19.5849 12.8511 20.707 10.1411 20.707 10.1411C20.8552 9.82357 21.1092 9.52717 21.6597 9.52717H23.8404Z" />
    </symbol>

    <symbol viewBox="0 0 32 32" id="icon-vk-square">
        <path fill-rule="evenodd" clip-rule="evenodd" d="M20.9118 0H11.0882C2.12279 0 0 2.12279 0 11.0882V20.9118C0 29.8772 2.12279 32 11.0882 32H20.9118C29.8772 32 32 29.8772 32 20.9118V11.0882C32 2.12279 29.8772 0 20.9118 0ZM25.4964 10.1623C26.1965 10.1623 26.3545 10.5236 26.1965 11.0205C25.9497 12.1591 23.901 15.1795 23.2665 16.115C23.1459 16.2927 23.0764 16.3952 23.08 16.3952C22.8316 16.8017 22.7413 16.9824 23.08 17.434C23.2025 17.601 23.4621 17.8558 23.7589 18.147C24.0641 18.4465 24.4086 18.7845 24.6834 19.1051C25.677 20.2343 26.4449 21.1828 26.6481 21.8377C26.8288 22.4926 26.5126 22.8313 25.8351 22.8313H23.5091C22.8927 22.8313 22.5749 22.4773 21.8977 21.7229C21.6074 21.3994 21.2509 21.0023 20.7766 20.5279C19.399 19.1955 18.7893 19.0148 18.4505 19.0148C17.9763 19.0148 17.8408 19.1277 17.8408 19.8052V21.9054C17.8408 22.47 17.6601 22.8087 16.1696 22.8087C13.7081 22.8087 10.9756 21.3183 9.05602 18.5406C6.1654 14.4756 5.375 11.4044 5.375 10.7946C5.375 10.4559 5.48791 10.1397 6.1654 10.1397H8.51403C9.10118 10.1397 9.32701 10.3881 9.55284 11.043C10.7046 14.3627 12.6241 17.2759 13.4145 17.2759C13.7081 17.2759 13.8436 17.1404 13.8436 16.3952V12.9626C13.7878 11.9869 13.4482 11.5618 13.1963 11.2466C13.0401 11.0511 12.9177 10.8978 12.9177 10.6817C12.9177 10.4107 13.1435 10.1397 13.5049 10.1397H17.1633C17.6601 10.1397 17.8408 10.4107 17.8408 10.9979V15.6274C17.8408 16.1242 18.044 16.3049 18.2021 16.3049C18.4957 16.3049 18.7441 16.1242 19.2861 15.5822C20.9572 13.7078 22.1541 10.8172 22.1541 10.8172C22.3122 10.4785 22.5832 10.1623 23.1703 10.1623H25.4964Z" />
    </symbol>

    <symbol viewBox="0 0 7 12" id="page-back-link">
        <path d="M6 11L1 6L6 1" stroke-width="2" stroke-linecap="round" stroke-linejoin="round" />
    </symbol>

    <symbol viewBox="0 0 36 39" id="partner-reg-step">
        <ellipse cx="17.9378" cy="19.5" rx="17.9381" ry="18.9918" transform="rotate(180 17.9378 19.5)" fill="#E8E8E8" />
        <path d="M15.9449 24.7755L20.9277 19.5L15.9449 14.2245" stroke="#E02F21" stroke-width="2" />
    </symbol>

    <symbol viewBox="0 0 37 37" id="partner-pref-icon">
        <rect x="0.5" y="0.5" width="36" height="36" rx="18" stroke="#BCBCBC" />
        <path d="M25.9 12.95L14.4531 25.9L9.25 20.0136" stroke="#E02F21" stroke-width="2" stroke-linecap="round" stroke-linejoin="round" />
    </symbol>

    <symbol viewBox="0 0 44 44" id="level-icon">
        <path d="M22.0684 31.032C13.5176 31.032 6.55664 24.0711 6.55664 15.5203C6.55664 6.96094 13.5176 0 22.0684 0C30.6191 0 37.5801 6.96094 37.5801 15.5117C37.5801 24.0711 30.6191 31.032 22.0684 31.032ZM22.0684 7.22734C17.4965 7.22734 13.7754 10.9484 13.7754 15.5203C13.7754 20.0922 17.4965 23.8047 22.0684 23.8047C26.6402 23.8047 30.3613 20.0836 30.3613 15.5203C30.3613 10.9398 26.6402 7.22734 22.0684 7.22734Z" />
        <path d="M22.068 21.5016C25.3761 21.5016 28.0578 18.8198 28.0578 15.5117C28.0578 12.2036 25.3761 9.52188 22.068 9.52188C18.7599 9.52188 16.0781 12.2036 16.0781 15.5117C16.0781 18.8198 18.7599 21.5016 22.068 21.5016Z" />
        <path d="M8.35254 26.168L1.43457 37.9156L7.91426 38.732L11.7643 44L18.6307 32.3469C14.2307 31.7453 10.8275 29.6484 8.35254 26.168Z" />
        <path d="M35.6465 26.168L42.573 37.9156L36.0934 38.732L32.2434 44L25.377 32.3469C29.7684 31.7453 33.1715 29.6484 35.6465 26.168Z" />
    </symbol>

    <symbol viewBox="0 0 24 28" id="file-icon">
        <path fill-rule="evenodd" clip-rule="evenodd" d="M4 0.5C1.79086 0.5 0 2.31325 0 4.55V23.45C0 25.6868 1.79086 27.5 4 27.5H20C22.2091 27.5 24 25.6868 24 23.45V9.95C24 4.73091 19.8213 0.5 14.6667 0.5H4ZM4 3.2H13.3333V9.95H21.3333V23.45C21.3333 24.1956 20.7364 24.8 20 24.8H4C3.26362 24.8 2.66667 24.1956 2.66667 23.45V4.55C2.66667 3.80442 3.26362 3.2 4 3.2ZM16 3.33502C18.1484 3.77659 19.9217 5.26422 20.7786 7.25H16V3.33502Z" />
    </symbol>

    <symbol viewBox="0 0 17 17" id="window-photo-close">
        <path d="M16 1L1 16" stroke-width="1.5" stroke-linecap="round" stroke-linejoin="round" />
        <path d="M1 1L16 16" stroke-width="1.5" stroke-linecap="round" stroke-linejoin="round" />
    </symbol>

    <symbol viewBox="0 0 17 16" id="window-photo-download">
        <path d="M14.167 8L14.167 2.66667C14.167 2.31304 14.0177 1.97391 13.7521 1.72386C13.4864 1.47381 13.126 1.33333 12.7503 1.33333L4.25033 1.33333C3.8746 1.33333 3.51427 1.47381 3.24859 1.72386C2.98292 1.97391 2.83366 2.31305 2.83366 2.66667L2.83366 8" stroke-width="1.5" stroke-linecap="round" stroke-linejoin="round" />
        <path d="M5.66634 12.0001L8.49967 14.6667L11.333 12.0001" stroke-width="1.5" stroke-linecap="round" stroke-linejoin="round" />
        <path d="M8.5 14.6667L8.5 6.00008" stroke-width="1.5" stroke-linecap="round" stroke-linejoin="round" />
    </symbol>

    <symbol viewBox="0 0 17 16" id="window-photo-share">
        <path d="M12.75 5.33325C13.9236 5.33325 14.875 4.43782 14.875 3.33325C14.875 2.22868 13.9236 1.33325 12.75 1.33325C11.5764 1.33325 10.625 2.22868 10.625 3.33325C10.625 4.43782 11.5764 5.33325 12.75 5.33325Z" stroke-width="1.5" stroke-linecap="round" stroke-linejoin="round" />
        <path d="M4.25 10C5.4236 10 6.375 9.10457 6.375 8C6.375 6.89543 5.4236 6 4.25 6C3.07639 6 2.125 6.89543 2.125 8C2.125 9.10457 3.07639 10 4.25 10Z" stroke-width="1.5" stroke-linecap="round" stroke-linejoin="round" />
        <path d="M12.75 14.6667C13.9236 14.6667 14.875 13.7713 14.875 12.6667C14.875 11.5622 13.9236 10.6667 12.75 10.6667C11.5764 10.6667 10.625 11.5622 10.625 12.6667C10.625 13.7713 11.5764 14.6667 12.75 14.6667Z" stroke-width="1.5" stroke-linecap="round" stroke-linejoin="round" />
        <path d="M6.08496 9.00659L10.9229 11.6599" stroke-width="1.5" stroke-linecap="round" stroke-linejoin="round" />
        <path d="M10.9158 4.34009L6.08496 6.99342" stroke-width="1.5" stroke-linecap="round" stroke-linejoin="round" />
    </symbol>

    <symbol viewBox="0 0 29 29" id="window-photo-share-link">
        <path d="M12.667 14.6667C12.9533 15.0495 13.3186 15.3662 13.738 15.5954C14.1575 15.8245 14.6213 15.9608 15.0981 15.9949C15.5749 16.0291 16.0534 15.9603 16.5012 15.7932C16.9491 15.6262 17.3557 15.3648 17.6937 15.0267L19.6937 13.0267C20.3009 12.3981 20.6368 11.556 20.6292 10.6821C20.6216 9.80806 20.2711 8.97202 19.6531 8.354C19.035 7.73597 18.199 7.38541 17.325 7.37781C16.451 7.37022 15.609 7.7062 14.9803 8.31339L13.8337 9.45339" stroke-width="2" stroke-linecap="round" stroke-linejoin="round" />
        <path d="M15.3335 13.3333C15.0472 12.9506 14.6819 12.6339 14.2624 12.4047C13.843 12.1755 13.3791 12.0392 12.9024 12.0051C12.4256 11.971 11.9471 12.0397 11.4992 12.2068C11.0514 12.3739 10.6447 12.6353 10.3068 12.9733L8.3068 14.9733C7.69961 15.602 7.36363 16.444 7.37122 17.318C7.37881 18.192 7.72938 19.028 8.3474 19.646C8.96543 20.2641 9.80147 20.6146 10.6755 20.6222C11.5495 20.6298 12.3915 20.2938 13.0201 19.6867L14.1601 18.5467" stroke-width="2" stroke-linecap="round" stroke-linejoin="round" />
    </symbol>

    <symbol viewBox="0 0 29 29" id="window-photo-share-fb">
        <path d="M29 14.4998C29 6.49077 22.509 -0.000244141 14.5 -0.000244141C6.49102 -0.000244141 0 6.49077 0 14.4998C0 21.7384 5.30156 27.7367 12.2344 28.8242V18.6912H8.55273V14.4998H12.2344V11.3052C12.2344 7.67173 14.398 5.66382 17.7115 5.66382C19.2975 5.66382 20.957 5.94702 20.957 5.94702V9.51538H19.1275C17.3264 9.51538 16.7656 10.634 16.7656 11.781V14.4998H20.7871L20.1442 18.6912H16.7656V28.8242C23.6984 27.7367 29 21.7384 29 14.4998Z" />
    </symbol>

    <symbol viewBox="0 0 29 29" id="window-photo-share-vk">
        <path fill-rule="evenodd" clip-rule="evenodd" d="M14.5 -0.000244141C6.49187 -0.000244141 0 6.49163 0 14.4998C0 22.5079 6.49187 28.9998 14.5 28.9998C22.5081 28.9998 29 22.5079 29 14.4998C29 6.49163 22.5081 -0.000244141 14.5 -0.000244141ZM21.7269 9.7408C22.2855 9.7408 22.4116 10.0407 22.2855 10.453C22.0886 11.3979 20.4539 13.9044 19.9476 14.6808C19.8514 14.8283 19.7959 14.9134 19.7988 14.9134C19.6006 15.2507 19.5285 15.4006 19.7988 15.7754C19.8965 15.914 20.1037 16.1255 20.3405 16.3671C20.584 16.6157 20.8589 16.8962 21.0782 17.1623C21.871 18.0993 22.4837 18.8865 22.6458 19.43C22.79 19.9735 22.5377 20.2546 21.9972 20.2546H20.1412C19.6493 20.2546 19.3958 19.9608 18.8555 19.3347C18.6238 19.0662 18.3394 18.7367 17.9609 18.343C16.8617 17.2373 16.3752 17.0873 16.1049 17.0873C15.7265 17.0873 15.6184 17.181 15.6184 17.7433V19.4862C15.6184 19.9547 15.4742 20.2358 14.2849 20.2358C12.3209 20.2358 10.1405 18.9989 8.6089 16.6938C6.30245 13.3204 5.67177 10.7716 5.67177 10.2656C5.67177 9.98443 5.76187 9.72206 6.30245 9.72206H8.17644C8.64494 9.72206 8.82513 9.92821 9.00532 10.4717C9.9243 13.2267 11.4559 15.6443 12.0866 15.6443C12.3209 15.6443 12.429 15.5318 12.429 14.9134V12.0647C12.3845 11.255 12.1135 10.9022 11.9125 10.6406C11.7879 10.4784 11.6902 10.3512 11.6902 10.1718C11.6902 9.94695 11.8704 9.72206 12.1587 9.72206H15.0778C15.4742 9.72206 15.6184 9.94695 15.6184 10.4342V14.2762C15.6184 14.6885 15.7805 14.8384 15.9067 14.8384C16.1409 14.8384 16.3391 14.6885 16.7716 14.2387C18.105 12.6832 19.06 10.2843 19.06 10.2843C19.1862 10.0032 19.4024 9.7408 19.8709 9.7408H21.7269Z" />
    </symbol>

    <symbol viewBox="0 0 20 20" id="text-notice-icon">
        <path d="M9.99935 18.3334C14.6017 18.3334 18.3327 14.6024 18.3327 10C18.3327 5.39765 14.6017 1.66669 9.99935 1.66669C5.39698 1.66669 1.66602 5.39765 1.66602 10C1.66602 14.6024 5.39698 18.3334 9.99935 18.3334Z" fill="#F1F1F1" />
        <path d="M10 13.3333V10" stroke="#848484" stroke-width="2" stroke-linecap="round" stroke-linejoin="round" />
        <path d="M10 6.66669H10.0083" stroke="#848484" stroke-width="2" stroke-linecap="round" stroke-linejoin="round" />
    </symbol>

</svg>