<svg width="69" height="66" viewBox="0 0 69 66" fill="none" xmlns="http://www.w3.org/2000/svg">
<path d="M15.8477 21.5167C15.8477 26.3561 17.6926 30.9435 21.0442 34.434C23.7207 37.2223 25.199 40.9175 25.2085 44.846H23.8042C23.0563 44.846 22.4485 45.4537 22.4485 46.2017V54.2297C22.4485 54.9776 23.0563 55.5854 23.8042 55.5854H27.0561V59.1945C27.0561 59.716 27.4779 60.1378 27.9995 60.1378H41.0057C41.5272 60.1378 41.9491 59.716 41.9491 59.1945V55.5854H45.201C45.9489 55.5854 46.5567 54.9776 46.5567 54.2297V53.2176C46.5567 52.6961 46.1349 52.2742 45.6133 52.2742C45.0918 52.2742 44.67 52.6961 44.67 53.2176V53.6987H41.0057H27.9995H24.3352V51.1584H31.1624C31.684 51.1584 32.1058 50.7366 32.1058 50.215C32.1058 49.6935 31.684 49.2717 31.1624 49.2717H24.3352V46.7313H44.67V47.4456C44.67 47.9671 45.0918 48.3889 45.6133 48.3889C46.1349 48.3889 46.5567 47.9671 46.5567 47.4456V46.2017C46.5567 45.4537 45.9489 44.846 45.201 44.846H42.8574C42.856 44.846 42.8547 44.846 42.8533 44.846H35.4453V32.3694L38.1972 29.0851C38.7066 29.1741 39.2174 29.2185 39.7241 29.2185C42.0259 29.2185 44.2441 28.3143 45.9233 26.6351C48.1132 24.4451 48.9852 21.3388 48.252 18.3254C48.1685 17.9831 47.9003 17.7149 47.558 17.6314C44.546 16.901 41.4396 17.7715 39.2497 19.9615C37.1757 22.0355 36.2849 24.933 36.8185 27.7927L34.5019 30.5554L32.1853 27.7914C32.719 24.9303 31.8282 22.0342 29.7541 19.9601C27.5642 17.7702 24.4592 16.8996 21.4458 17.63C21.1022 17.7136 20.8353 17.9804 20.7518 18.3241C20.02 21.3361 20.8906 24.4424 23.0805 26.6337C24.7597 28.3129 26.9779 29.2172 29.2797 29.2172C29.7865 29.2172 30.2959 29.1727 30.8066 29.0838L33.5585 32.368V44.8446H27.0952C27.0844 40.4283 25.4201 36.2681 22.4054 33.1267C19.3933 29.9894 17.7344 25.8669 17.7344 21.5167C17.7344 17.0155 19.4931 12.7906 22.687 9.61957C25.8796 6.44854 30.1153 4.72219 34.6205 4.75049C43.5083 4.81114 50.9743 12.0831 51.2614 20.9601C51.4069 25.4774 49.7803 29.7697 46.6793 33.0432C44.4853 35.3598 42.9706 38.1993 42.2994 41.2531C42.1876 41.7625 42.5097 42.2652 43.0191 42.377C43.5272 42.4889 44.0312 42.1668 44.143 41.6574C44.7401 38.9392 46.0904 36.4083 48.0499 34.341C51.4999 30.6983 53.3098 25.9249 53.1481 20.8995C52.9917 16.0789 50.9891 11.5589 47.5095 8.1695C44.0312 4.78149 39.4586 2.89746 34.634 2.86377C29.6247 2.83278 24.9106 4.75319 21.3582 8.28135C17.8045 11.8095 15.8477 16.5101 15.8477 21.5167ZM40.0623 55.5854V58.2511H28.9428V55.5854H40.0623ZM40.5839 21.2943C42.1647 19.7135 44.3533 19.0073 46.5338 19.3483C46.8761 21.5302 46.1699 23.7188 44.5891 25.2996C43.0083 26.8804 40.8197 27.5865 38.6379 27.2442C38.2969 25.0637 39.0031 22.8751 40.5839 21.2943ZM24.4147 25.2996C22.8339 23.7188 22.1277 21.5302 22.47 19.3483C24.6519 19.0073 26.8391 19.7135 28.4199 21.2943C30.0007 22.8751 30.7069 25.0637 30.366 27.2442C28.1854 27.5865 25.9955 26.8804 24.4147 25.2996Z" fill="#848484"/>
<path d="M41.1851 10.2287C40.7376 9.96188 40.1581 10.1074 39.8913 10.5549C39.6245 11.0023 39.77 11.5818 40.2174 11.8486C40.3023 11.8998 40.3859 11.951 40.4695 12.0036C40.6258 12.1033 40.801 12.1505 40.9735 12.1505C41.2861 12.1505 41.592 11.9955 41.7713 11.7111C42.0503 11.2705 41.9195 10.6883 41.4788 10.4093C41.3818 10.3487 41.2834 10.288 41.1851 10.2287Z" fill="#E02F21"/>
<path d="M34.592 8.3877H34.5017C31.4345 8.3877 28.4467 9.47256 26.0924 11.4415C25.6921 11.7757 25.6395 12.37 25.9738 12.7703C26.1597 12.994 26.4279 13.1085 26.6975 13.1085C26.9104 13.1085 27.126 13.0371 27.3026 12.8889C29.32 11.2029 31.8765 10.2744 34.499 10.2744H34.5826C35.2456 10.2785 35.91 10.3431 36.5583 10.4631C37.0704 10.5588 37.5636 10.2205 37.6593 9.7084C37.755 9.19629 37.4167 8.70305 36.9046 8.60736C36.1459 8.46721 35.3683 8.39309 34.592 8.3877Z" fill="#E02F21"/>
<path d="M46.4858 50.308C46.4629 50.2501 46.4333 50.1962 46.3996 50.1449C46.3645 50.0924 46.3254 50.0452 46.2823 50.0007C46.2378 49.9576 46.1907 49.9185 46.1381 49.8835C46.0869 49.8498 46.033 49.8202 45.9751 49.7973C45.9185 49.773 45.8592 49.7555 45.7985 49.7433C45.4926 49.6814 45.1665 49.7824 44.9481 50.0007C44.9037 50.0452 44.8646 50.0924 44.8309 50.1449C44.7959 50.1962 44.7676 50.2501 44.7433 50.308C44.7204 50.3646 44.7015 50.4239 44.6894 50.4846C44.6773 50.5452 44.6719 50.6072 44.6719 50.6678C44.6719 50.9172 44.7716 51.1597 44.9481 51.3349C45.1233 51.5115 45.3659 51.6112 45.6152 51.6112C45.6759 51.6112 45.7379 51.6058 45.7985 51.5937C45.8592 51.5815 45.9185 51.5627 45.9751 51.5398C46.033 51.5155 46.0869 51.4872 46.1381 51.4522C46.1907 51.4185 46.2378 51.3794 46.2823 51.3349C46.4575 51.1597 46.5586 50.9172 46.5586 50.6678C46.5586 50.6072 46.5519 50.5452 46.5397 50.4846C46.5276 50.4239 46.5101 50.3646 46.4858 50.308Z" fill="#E02F21"/>
<path d="M35.6582 49.2717C35.1367 49.2717 34.7148 49.6935 34.7148 50.2151C34.7148 50.7366 35.1367 51.1584 35.6582 51.1584H36.8967C37.4182 51.1584 37.84 50.7366 37.84 50.2151C37.84 49.6935 37.4182 49.2717 36.8967 49.2717H35.6582Z" fill="#E02F21"/>
</svg>
