<svg width="67" height="67" viewBox="0 0 67 67" fill="none" xmlns="http://www.w3.org/2000/svg">
<path fill-rule="evenodd" clip-rule="evenodd" d="M51.6358 28.5908V34.2021L46.7713 37.0091L43.9657 41.8694H43.2524C43.2524 41.8708 43.2538 41.8735 43.2538 41.8749V62.8124C43.2538 62.818 43.251 62.8222 43.251 62.8278C43.2566 63.1823 43.1268 63.5397 42.856 63.8105C42.5852 64.0813 42.2279 64.2111 41.8719 64.2055C41.8678 64.2055 41.8636 64.2083 41.858 64.2083C41.4113 64.2083 41.0303 63.9849 40.7762 63.6569L33.483 56.3637L26.1898 63.6569C25.9357 63.9849 25.5561 64.2083 25.108 64.2083C25.1024 64.2083 25.0982 64.2055 25.094 64.2055C24.7381 64.2111 24.3808 64.0813 24.11 63.8105C23.8406 63.5397 23.7094 63.1823 23.7149 62.8278C23.7149 62.8222 23.7122 62.818 23.7122 62.8124V41.8749C23.7122 41.8735 23.7136 41.8708 23.7136 41.8694H23.0059L20.1974 37.0091L15.3344 34.2021V28.5908L12.5273 23.7305L15.3344 18.8688V13.2534L20.1974 10.4436L23.0059 5.58747H28.6241L33.4816 2.77905L38.3447 5.58747H43.9629L46.7685 10.4436L51.633 13.2534V18.8674L54.4386 23.7305L51.6358 28.5908ZM26.5038 41.8749V59.489L32.3524 53.6404C32.397 53.5748 32.4263 53.4994 32.485 53.4394C32.7599 53.1658 33.1229 53.0388 33.483 53.0472C33.8431 53.0388 34.206 53.1658 34.481 53.4394C34.5396 53.4994 34.5676 53.5748 34.6136 53.6404L40.4622 59.489V41.8749C40.4622 41.8735 40.4636 41.8708 40.4636 41.8694H38.3461L33.483 44.6792L28.6255 41.8694H26.5024C26.5024 41.8708 26.5038 41.8735 26.5038 41.8749ZM48.8372 19.6142V14.8642L44.7222 12.4871L42.3507 8.37914H37.5965L33.4858 6.00482L29.3778 8.37914H24.6236L22.2493 12.4857L18.133 14.8628V19.6142L15.7587 23.7305L18.133 27.844V32.5899L22.2493 34.9656L24.6236 39.0763H29.3764L33.4844 41.4506L37.5951 39.0763H42.3479L44.7194 34.9656L48.8358 32.5899V27.8454L51.2087 23.7305L48.8372 19.6142Z" fill="#848484"/>
<path d="M32.0664 21.957H33.6719C34.2812 21.957 34.7266 21.7461 35.0078 21.3242C35.2969 20.8945 35.4414 20.3242 35.4414 19.6133C35.4414 18.9336 35.293 18.4062 34.9961 18.0312C34.707 17.6484 34.3164 17.457 33.8242 17.457C33.3633 17.457 32.9844 17.6367 32.6875 17.9961C32.3984 18.3555 32.2539 18.8086 32.2539 19.3555H28.9375C28.9375 18.4648 29.1406 17.668 29.5469 16.9648C29.9609 16.2539 30.5352 15.6992 31.2695 15.3008C32.0117 14.9023 32.832 14.7031 33.7305 14.7031C35.3008 14.7031 36.5312 15.1367 37.4219 16.0039C38.3125 16.8711 38.7578 18.0586 38.7578 19.5664C38.7578 20.3398 38.5547 21.0586 38.1484 21.7227C37.75 22.3789 37.2227 22.8828 36.5664 23.2344C37.3711 23.5781 37.9688 24.0938 38.3594 24.7812C38.7578 25.4688 38.957 26.2812 38.957 27.2188C38.957 28.7344 38.4727 29.9492 37.5039 30.8633C36.543 31.7773 35.2773 32.2344 33.707 32.2344C32.2461 32.2344 31.0586 31.7852 30.1445 30.8867C29.2383 29.9805 28.7852 28.793 28.7852 27.3242H32.1016C32.1016 27.9336 32.2617 28.4453 32.582 28.8594C32.9023 29.2734 33.3086 29.4805 33.8008 29.4805C34.3711 29.4805 34.8203 29.2695 35.1484 28.8477C35.4844 28.4258 35.6523 27.8633 35.6523 27.1602C35.6523 25.4805 35 24.6367 33.6953 24.6289H32.0664V21.957Z" fill="#E02F21"/>
</svg>
