<svg width="59" height="59" viewBox="0 0 59 59" fill="none" xmlns="http://www.w3.org/2000/svg">
<path d="M1.18005 46.1581H35.4001V57.6819L42.4801 53.4339L49.5601 57.6819V46.1581H57.8201V1.31805H1.18005V46.1581ZM47.5128 38.1506C47.4066 38.258 47.2933 38.3571 47.1812 38.4574C47.1175 38.514 47.0585 38.5742 46.9924 38.6285C46.9192 38.6898 46.8413 38.7418 46.7658 38.7996C45.7711 39.5607 44.5722 40.0669 43.2636 40.212C43.2423 40.2144 43.2211 40.2191 43.1987 40.2215C42.9615 40.2451 42.7208 40.2581 42.4777 40.2581C42.2346 40.2581 41.9939 40.2451 41.7567 40.2215C41.7355 40.2191 41.7142 40.2144 41.6918 40.212C40.3832 40.0669 39.1855 39.5607 38.1896 38.7996C38.1141 38.7418 38.0362 38.6887 37.963 38.6285C37.8981 38.5742 37.8379 38.514 37.7742 38.4574C37.6621 38.3571 37.55 38.258 37.4426 38.1506C36.1789 36.8715 35.3953 35.1156 35.3953 33.1781C35.3953 29.2734 38.5707 26.0981 42.4753 26.0981C46.38 26.0981 49.5553 29.2734 49.5553 33.1781C49.5601 35.1144 48.7777 36.8703 47.5128 38.1506ZM47.2001 53.5142L42.4801 50.6822L37.7601 53.5142V46.1581V41.3555C37.8002 41.3791 37.845 41.3944 37.8863 41.4168C38.199 41.5915 38.5211 41.7519 38.8539 41.8912C38.8681 41.8971 38.8834 41.9018 38.8988 41.9077C40.0044 42.3632 41.2127 42.6181 42.4812 42.6181C43.7497 42.6181 44.958 42.3632 46.0637 41.9077C46.0779 41.9018 46.0932 41.8971 46.1086 41.8912C46.4413 41.7519 46.7635 41.5926 47.0762 41.4168C47.1175 41.3944 47.1623 41.3791 47.2024 41.3555V46.1581V53.5142H47.2001ZM3.54005 3.67805H55.4601V43.7981H49.5601V39.4014C51.0244 37.7376 51.9201 35.5628 51.9201 33.1781C51.9201 27.9731 47.685 23.7381 42.4801 23.7381C37.2751 23.7381 33.0401 27.9731 33.0401 33.1781C33.0401 35.5628 33.9357 37.7376 35.4001 39.4014V43.7981H3.54005V3.67805Z" fill="#4A4A4A"/>
<path d="M25.6377 34H13.7139V32.0518L19.793 23.9951C20.7109 22.7549 21.3457 21.7393 21.6973 20.9482C22.0586 20.1475 22.2393 19.3027 22.2393 18.4141C22.2393 17.2812 21.9756 16.3633 21.4482 15.6602C20.9209 14.957 20.2275 14.6055 19.3682 14.6055C18.2842 14.6055 17.4443 14.9814 16.8486 15.7334C16.2627 16.4756 15.9697 17.5498 15.9697 18.9561H13.377C13.377 16.9932 13.9141 15.4063 14.9883 14.1953C16.0625 12.9844 17.5225 12.3789 19.3682 12.3789C21.0674 12.3789 22.4053 12.9014 23.3818 13.9463C24.3584 14.9814 24.8467 16.3633 24.8467 18.0918C24.8467 20.2012 23.748 22.6963 21.5508 25.5771L16.8047 31.7881H25.6377V34Z" fill="#E02F21"/>
</svg>
