<svg width="58" height="56" viewBox="0 0 58 56" fill="none" xmlns="http://www.w3.org/2000/svg">
<path d="M3.39598 37.0667C3.0732 37.5401 2.86426 38.0813 2.7854 38.6484C2.70655 39.2155 2.75992 39.7931 2.94136 40.3362C3.12279 40.8794 3.4274 41.3734 3.83146 41.7798C4.23553 42.1863 4.72815 42.4942 5.27098 42.6796C4.84901 43.2969 4.62385 44.027 4.62504 44.7742C4.62504 45.7666 5.02013 46.7184 5.72339 47.4201C6.42665 48.1219 7.38048 48.5161 8.37504 48.5161H14V51.3226C14 52.5631 14.4939 53.7528 15.373 54.63C16.2521 55.5072 17.4443 56 18.6875 56C19.9307 56 21.123 55.5072 22.0021 54.63C22.8812 53.7528 23.375 52.5631 23.375 51.3226V48.5161H29C30.5776 48.5138 32.1018 47.9456 33.2945 46.9152C34.4872 45.8848 35.2688 44.4609 35.4969 42.9032H38.375V44.7742C38.375 45.0223 38.4738 45.2602 38.6496 45.4357C38.8254 45.6111 39.0639 45.7097 39.3125 45.7097H44V46.6452C44 46.8933 44.0988 47.1312 44.2746 47.3066C44.4504 47.4821 44.6889 47.5806 44.9375 47.5806H56.1875C56.4362 47.5806 56.6746 47.4821 56.8505 47.3066C57.0263 47.1312 57.125 46.8933 57.125 46.6452V41.9079H55.25V45.7097H45.875V25.129H55.25V36.3997H57.125V24.1935C57.125 23.9454 57.0263 23.7075 56.8505 23.5321C56.6746 23.3566 56.4362 23.2581 56.1875 23.2581H44.9375C44.6889 23.2581 44.4504 23.3566 44.2746 23.5321C44.0988 23.7075 44 23.9454 44 24.1935V25.129H39.3125C39.0639 25.129 38.8254 25.2276 38.6496 25.403C38.4738 25.5785 38.375 25.8164 38.375 26.0645V27.9355H35.496C35.2685 26.3777 34.4871 24.9536 33.2945 23.9231C32.1019 22.8926 30.5776 22.3245 29 22.3226H23.375V19.3225C25.1977 18.3934 26.7021 16.9442 27.6967 15.1593C28.6913 13.3743 29.1312 11.3345 28.9603 9.2993C28.7894 7.26414 28.0155 5.32575 26.737 3.73088C25.4586 2.13601 23.7335 0.956811 21.7813 0.343382C21.6408 0.299293 21.4919 0.288854 21.3466 0.312913C21.2013 0.336972 21.0637 0.394851 20.945 0.481859C20.8263 0.568868 20.7298 0.682557 20.6634 0.813714C20.5969 0.944871 20.5624 1.0898 20.5625 1.23677V9.2258H16.8125V1.23677C16.8127 1.0898 16.7781 0.944871 16.7117 0.813714C16.6453 0.682557 16.5488 0.568868 16.4301 0.481859C16.3114 0.394851 16.1738 0.336972 16.0285 0.312913C15.8832 0.288854 15.7343 0.299293 15.5938 0.343382C13.6416 0.956811 11.9165 2.13601 10.6381 3.73088C9.35962 5.32575 8.58569 7.26414 8.41479 9.2993C8.24389 11.3345 8.68375 13.3743 9.67836 15.1593C10.673 16.9442 12.1774 18.3934 14 19.3225V24.1935H6.50004C5.81971 24.1939 5.15228 24.3789 4.56926 24.7288C3.98624 25.0786 3.50958 25.5802 3.19036 26.1797C2.87113 26.7792 2.72136 27.454 2.75708 28.132C2.79281 28.8099 3.01269 29.4654 3.39316 30.0282C2.65809 30.2797 2.02014 30.754 1.56848 31.385C1.11682 32.016 0.874023 32.772 0.874023 33.5474C0.874023 34.3229 1.11682 35.0789 1.56848 35.7099C2.02014 36.3408 2.65809 36.8152 3.39316 37.0667H3.39598ZM4.62504 39.1613C4.62504 38.6651 4.82258 38.1892 5.17421 37.8383C5.52584 37.4874 6.00276 37.2903 6.50004 37.2903H14C14.2171 37.29 14.4323 37.33 14.6347 37.4082C14.9318 37.5138 15.1972 37.6928 15.4061 37.9284C15.6151 38.1641 15.7608 38.4487 15.8297 38.7557C15.8986 39.0628 15.8885 39.3823 15.8001 39.6843C15.7118 39.9864 15.5483 40.2612 15.3247 40.4831C15.1215 40.6865 14.8728 40.8388 14.5991 40.9275C14.4074 40.9982 14.2044 41.0337 14 41.0323H6.50004C6.00276 41.0323 5.52584 40.8351 5.17421 40.4843C4.82258 40.1334 4.62504 39.6575 4.62504 39.1613ZM6.50004 44.7742C6.50004 44.278 6.69758 43.8021 7.04921 43.4512C7.40085 43.1003 7.87776 42.9032 8.37504 42.9032H15.875C16.0921 42.9029 16.3073 42.9429 16.5097 43.0211C16.8738 43.1478 17.1891 43.385 17.4114 43.6993C17.6338 44.0136 17.7522 44.3894 17.75 44.7742C17.7491 44.866 17.7409 44.9577 17.7257 45.0483C17.7257 45.067 17.72 45.0866 17.7172 45.1082C17.7069 45.1587 17.6882 45.212 17.6732 45.2634C17.6456 45.3801 17.6066 45.4939 17.5569 45.603C17.4933 45.725 17.4176 45.8403 17.331 45.9473C17.2902 45.9994 17.2464 46.0491 17.1997 46.096C16.9965 46.2994 16.7478 46.4517 16.4741 46.5404C16.2824 46.6111 16.0794 46.6466 15.875 46.6452H8.37504C7.87776 46.6452 7.40085 46.448 7.04921 46.0972C6.69758 45.7463 6.50004 45.2704 6.50004 44.7742ZM21.5 51.3226C21.5 52.0669 21.2037 52.7807 20.6763 53.307C20.1488 53.8333 19.4335 54.129 18.6875 54.129C17.9416 54.129 17.2262 53.8333 16.6988 53.307C16.1714 52.7807 15.875 52.0669 15.875 51.3226V48.5161C16.2941 48.5202 16.7104 48.4476 17.1032 48.3019C17.64 48.1227 18.1271 47.8202 18.5254 47.4188C18.6222 47.3227 18.7127 47.2206 18.7963 47.1129C18.9616 46.91 19.1055 46.6905 19.2257 46.4581L19.2322 46.444L19.2388 46.4328C19.2829 46.3393 19.3232 46.2382 19.356 46.1522C19.4381 45.9509 19.5009 45.7423 19.5435 45.5291C19.5435 45.5076 19.5519 45.4814 19.5557 45.459L19.565 45.4066C19.5754 45.3364 19.5866 45.2597 19.5979 45.1596C19.6091 45.0371 19.6204 44.9014 19.6204 44.7789C19.6247 44.0098 19.3888 43.2585 18.9454 42.6294C18.502 42.0004 17.8731 41.5248 17.1463 41.2689C17.1341 41.2633 17.12 41.2586 17.1069 41.254L17.1125 41.2446C17.1219 41.2315 17.1275 41.2165 17.1369 41.2025C17.2472 41.0323 17.3431 40.8534 17.4238 40.6674C17.4519 40.6057 17.4735 40.5421 17.4979 40.4803C17.5541 40.331 17.6005 40.1782 17.6366 40.0229C17.6516 39.9593 17.6685 39.8956 17.6807 39.8302C17.7609 39.4154 17.7666 38.9897 17.6975 38.5729C17.6882 38.5158 17.6694 38.4625 17.6582 38.4064C17.6325 38.2696 17.5993 38.1344 17.5588 38.0013C17.5429 37.9517 17.5185 37.9077 17.5007 37.8582C17.4527 37.7227 17.3966 37.5903 17.3329 37.4615C17.3169 37.4297 17.2954 37.4007 17.2785 37.368C17.2034 37.2268 17.1188 37.0908 17.0254 36.961V36.9545C17.0769 36.9376 17.1191 36.9077 17.1744 36.889C17.44 36.7924 17.699 36.6787 17.9497 36.5485C18.0116 36.5167 18.0772 36.4895 18.1372 36.4549C18.436 36.2875 18.7209 36.0967 18.9894 35.8843C19.0532 35.8338 19.1113 35.7776 19.1769 35.7253C19.3843 35.5505 19.5806 35.363 19.7647 35.164C19.8285 35.0938 19.8922 35.0264 19.9522 34.9535C20.1774 34.6885 20.3814 34.4064 20.5625 34.1097C20.5682 34.119 20.5757 34.1274 20.5822 34.1368C20.729 34.3751 20.8912 34.6035 21.0679 34.8206C21.1316 34.8992 21.201 34.9722 21.2675 35.048C21.3341 35.1237 21.4175 35.2295 21.5 35.3127V51.3226ZM40.25 27H44V43.8387H40.25V27ZM33.6875 28.871C33.6875 29.1191 33.7863 29.357 33.9621 29.5325C34.1379 29.7079 34.3764 29.8064 34.625 29.8064H38.375V41.0323H34.625C34.3764 41.0323 34.1379 41.1308 33.9621 41.3063C33.7863 41.4817 33.6875 41.7196 33.6875 41.9677C33.6853 43.2076 33.1907 44.396 32.3121 45.2727C31.4335 46.1494 30.2426 46.6429 29 46.6452H23.375V36.6523C24.253 37.0721 25.214 37.2901 26.1875 37.2903C26.4362 37.2903 26.6746 37.1918 26.8505 37.0163C27.0263 36.8409 27.125 36.6029 27.125 36.3548C27.125 36.1067 27.0263 35.8688 26.8505 35.6933C26.6746 35.5179 26.4362 35.4193 26.1875 35.4193C24.9461 35.4137 23.7571 34.9191 22.8792 34.0431C22.0014 33.1672 21.5057 31.9807 21.5 30.7419C21.5 30.4938 21.4013 30.2559 21.2255 30.0804C21.0496 29.905 20.8112 29.8064 20.5625 29.8064C20.3139 29.8064 20.0754 29.905 19.8996 30.0804C19.7238 30.2559 19.625 30.4938 19.625 30.7419C19.6225 31.0405 19.5911 31.3381 19.5313 31.6306C19.5125 31.7242 19.4807 31.8177 19.4563 31.9066C19.41 32.0971 19.3521 32.2845 19.2829 32.4679C19.2416 32.5708 19.1891 32.6681 19.1422 32.7673C19.0672 32.9259 18.9833 33.0802 18.891 33.2294C18.83 33.3229 18.7635 33.4165 18.695 33.51C18.5938 33.6476 18.4849 33.7794 18.3688 33.9048C18.2919 33.9881 18.2132 34.0713 18.1297 34.149C18.0018 34.2669 17.8672 34.3775 17.7266 34.4801C17.6394 34.5465 17.5532 34.6139 17.4613 34.6738C17.2999 34.7739 17.1327 34.8645 16.9607 34.9451C16.8744 34.9872 16.7929 35.0386 16.7038 35.0723C16.4511 35.1757 16.1898 35.2568 15.9229 35.3146C15.906 35.3146 15.891 35.3258 15.8741 35.3295V27.0748C15.8738 26.5576 16.0159 26.0502 16.2847 25.608C16.5409 25.1794 16.9035 24.8241 17.3376 24.5763C17.7717 24.3285 18.2625 24.1967 18.7625 24.1935H29C30.2428 24.195 31.4342 24.6883 32.313 25.5652C33.1917 26.442 33.6861 27.6309 33.6875 28.871ZM10.25 10.1613C10.2438 8.59138 10.6799 7.05134 11.5088 5.71695C12.3376 4.38257 13.5258 3.30759 14.9375 2.61474V10.1613C14.9375 10.4094 15.0363 10.6473 15.2121 10.8228C15.3879 10.9982 15.6264 11.0968 15.875 11.0968H21.5C21.7487 11.0968 21.9871 10.9982 22.163 10.8228C22.3388 10.6473 22.4375 10.4094 22.4375 10.1613V2.61474C23.8767 3.32721 25.0821 4.43488 25.9121 5.80751C26.742 7.18014 27.162 8.76068 27.1226 10.3633C27.0832 11.9659 26.5861 13.524 25.6897 14.8544C24.7934 16.1848 23.535 17.2322 22.0625 17.8734C21.8954 17.9462 21.7532 18.066 21.6533 18.2182C21.5534 18.3704 21.5001 18.5484 21.5 18.7303V22.3226H18.7625C18.5242 22.3242 18.2863 22.3442 18.051 22.3824C17.9788 22.3937 17.9085 22.4105 17.8372 22.4255C17.6733 22.458 17.5112 22.4993 17.3516 22.549C17.2766 22.5733 17.2035 22.5976 17.1294 22.6247C16.965 22.686 16.8042 22.7563 16.6475 22.8352C16.5932 22.8624 16.5379 22.8857 16.4844 22.9147C16.2754 23.0285 16.0752 23.1577 15.8854 23.3011L15.875 23.3076V18.7303C15.8749 18.5484 15.8217 18.3704 15.7218 18.2182C15.6219 18.066 15.4797 17.9462 15.3125 17.8734C13.8081 17.219 12.5277 16.1407 11.6285 14.7708C10.7292 13.4009 10.2502 11.7989 10.25 10.1613ZM6.50004 26.0645H14V29.8064H6.50004C6.00276 29.8064 5.52584 29.6093 5.17421 29.2585C4.82258 28.9076 4.62504 28.4317 4.62504 27.9355C4.62504 27.4393 4.82258 26.9634 5.17421 26.6125C5.52584 26.2616 6.00276 26.0645 6.50004 26.0645ZM3.30035 32.2265C3.4738 32.0522 3.68019 31.9138 3.90757 31.8196C4.13495 31.7253 4.37882 31.677 4.62504 31.6774H14V35.4193H4.62504C4.25453 35.4189 3.89246 35.3089 3.58453 35.1033C3.27661 34.8977 3.03664 34.6057 2.89491 34.2641C2.75318 33.9225 2.71606 33.5466 2.78822 33.184C2.86038 32.8214 3.03859 32.4882 3.30035 32.2265Z" fill="#4A4A4A"/>
<path d="M19.625 50.3871H17.75V52.2581H19.625V50.3871Z" fill="#E02F21"/>
<path d="M57.125 38.2707H55.25V40.0359H57.125V38.2707Z" fill="#E02F21"/>
<path d="M49.625 41.9677H47.75V43.8387H49.625V41.9677Z" fill="#E02F21"/>
<path d="M20.5625 12.9677H16.8125V14.8387H20.5625V12.9677Z" fill="#E02F21"/>
</svg>
