<svg width="44" height="56" viewBox="0 0 44 56" fill="none" xmlns="http://www.w3.org/2000/svg">
<path d="M22 17C22.7911 17 23.5645 16.7654 24.2223 16.3259C24.8801 15.8864 25.3928 15.2616 25.6955 14.5307C25.9983 13.7998 26.0775 12.9956 25.9231 12.2196C25.7688 11.4437 25.3878 10.731 24.8284 10.1716C24.269 9.61216 23.5563 9.2312 22.7804 9.07686C22.0044 8.92252 21.2002 9.00173 20.4693 9.30448C19.7384 9.60723 19.1136 10.1199 18.6741 10.7777C18.2346 11.4355 18 12.2089 18 13C18 14.0609 18.4214 15.0783 19.1716 15.8284C19.9217 16.5786 20.9391 17 22 17ZM22 11C22.3956 11 22.7822 11.1173 23.1111 11.3371C23.44 11.5568 23.6964 11.8692 23.8478 12.2346C23.9991 12.6001 24.0387 13.0022 23.9616 13.3902C23.8844 13.7781 23.6939 14.1345 23.4142 14.4142C23.1345 14.6939 22.7781 14.8844 22.3902 14.9616C22.0022 15.0387 21.6001 14.9991 21.2346 14.8478C20.8692 14.6964 20.5568 14.44 20.3371 14.1111C20.1173 13.7822 20 13.3956 20 13C20 12.4696 20.2107 11.9609 20.5858 11.5858C20.9609 11.2107 21.4696 11 22 11Z" fill="#4A4A4A"/>
<path d="M44 29H33.72L29.39 19.71C31.0713 17.8802 32.003 15.485 32 13C32 10.5209 31.0792 8.13025 29.4162 6.29172C27.7533 4.45319 25.4666 3.29791 23 3.05V0H21V3.05C18.5248 3.29874 16.2311 4.46115 14.5669 6.31024C12.9027 8.15933 11.9875 10.5623 12 13.05C11.997 15.535 12.9287 17.9302 14.61 19.76L10.28 29H0V31H9.35L1.24 48.39C1.12972 48.6301 1.06812 48.8897 1.05875 49.1538C1.04938 49.4179 1.09243 49.6812 1.18541 49.9285C1.27839 50.1758 1.41947 50.4023 1.60048 50.5948C1.78149 50.7873 1.99885 50.942 2.24 51.05L0.12 55.58L1.94 56.42L4 51.89C4.26223 52.0155 4.5493 52.0804 4.84 52.08C5.22253 52.0809 5.59731 51.9722 5.9199 51.7666C6.24248 51.561 6.49934 51.2672 6.66 50.92L16 31H21V34H23V31H28L37.29 50.92C37.4507 51.2672 37.7075 51.561 38.0301 51.7666C38.3527 51.9722 38.7275 52.0809 39.11 52.08C39.4007 52.0804 39.6878 52.0155 39.95 51.89L42.06 56.42L43.88 55.58L41.76 51.05C42.0012 50.942 42.2185 50.7873 42.3995 50.5948C42.5805 50.4023 42.7216 50.1758 42.8146 49.9285C42.9076 49.6812 42.9506 49.4179 42.9413 49.1538C42.9319 48.8897 42.8703 48.6301 42.76 48.39L34.65 31H44V29ZM26.2 22.06C26.45 21.95 26.69 21.82 26.93 21.69L27.14 21.56C27.35 21.43 27.56 21.3 27.76 21.16L27.83 21.11L31.51 29H29.31L26.1 22.12L26.2 22.06ZM14 13C13.9964 11.735 14.2929 10.4872 14.8651 9.35894C15.4373 8.23072 16.2689 7.25427 17.2916 6.50975C18.3143 5.76522 19.499 5.27384 20.7485 5.07594C21.9979 4.87804 23.2765 4.97927 24.4792 5.3713C25.6819 5.76334 26.7746 6.43501 27.6674 7.33118C28.5602 8.22736 29.2278 9.32249 29.6153 10.5267C30.0029 11.7309 30.0993 13.0098 29.8967 14.2585C29.6942 15.5072 29.1983 16.6901 28.45 17.71C27.2166 19.3976 25.3717 20.5354 23.31 20.88C22.444 21.04 21.556 21.04 20.69 20.88C18.6283 20.5354 16.7834 19.3976 15.55 17.71C14.5475 16.3438 14.0048 14.6945 14 13ZM16.17 21.11L16.24 21.16C16.44 21.3 16.65 21.43 16.86 21.56L17.07 21.69C17.31 21.82 17.55 21.95 17.8 22.07C17.8361 22.0805 17.87 22.0974 17.9 22.12L14.69 29H12.49L16.17 21.11ZM4.86 50.11L4.53 49.95L3.05 49.26L11.55 31H13.76L4.86 50.11ZM23 29V26H21V29H16.9L19.81 22.75C21.251 23.0832 22.749 23.0832 24.19 22.75L27.1 29H23ZM41 49.23L39.38 50L39.14 50.12L30.24 31H32.45L41 49.23Z" fill="#4A4A4A"/>
</svg>
