<svg width="66" height="41" viewBox="0 0 66 41" fill="none" xmlns="http://www.w3.org/2000/svg">
<rect x="0.7" y="0.7" width="64.6" height="39.6" stroke="#4A4A4A" stroke-width="1.4"/>
<path d="M23.8522 14.8912C22.6445 16.6996 22 18.8254 22 21C22.001 22.4462 22.2871 23.8781 22.8417 25.2138C23.3964 26.5495 24.2089 27.7627 25.2326 28.7843C26.2564 29.8058 27.4714 30.6156 28.8083 31.1674C30.1452 31.7192 31.5777 32.0021 33.0239 32C35.1985 31.9953 37.3229 31.3461 39.1287 30.1345C40.9345 28.923 42.3406 27.2033 43.1695 25.1929C43.9984 23.1825 44.2128 20.9716 43.7857 18.8393C43.3586 16.7071 42.309 14.7494 40.7697 13.2134C39.2304 11.6774 37.2703 10.6321 35.1372 10.2096C33.0041 9.78712 30.7936 10.0064 28.785 10.8396C26.7764 11.6729 25.0598 13.0828 23.8522 14.8912Z" fill="#E02F21"/>
</svg>
