<svg width="52" height="52" viewBox="0 0 52 52" fill="none" xmlns="http://www.w3.org/2000/svg">
<path fill-rule="evenodd" clip-rule="evenodd" d="M44.4163 49.8333C44.4163 50.4324 43.9321 50.9166 43.333 50.9166H12.9997C10.0075 50.9166 7.58301 48.4921 7.58301 45.5V6.49998C7.58301 3.5089 10.0075 1.08331 12.9997 1.08331H41.1663C41.6148 1.08331 42.0005 1.35631 42.1652 1.74523C42.2193 1.87415 42.2497 2.01715 42.2497 2.16665V9.74998H43.333C43.6342 9.74998 43.9061 9.87456 44.1033 10.0728C44.2961 10.2689 44.4163 10.5365 44.4163 10.8333V49.8333ZM9.74967 45.5C9.74967 47.2951 11.2057 48.75 12.9997 48.75H16.2497V11.9166H12.9997C11.7744 11.9166 10.6575 11.4941 9.74967 10.8095V45.5ZM40.083 9.74998V3.24998H12.9997C11.2057 3.24998 9.74967 4.7049 9.74967 6.49998C9.74967 8.29506 11.2057 9.74998 12.9997 9.74998H40.083ZM42.2497 11.9166H18.4163V48.75H42.2497V11.9166Z" fill="#4A4A4A"/>
<path d="M11.916 6.50008C11.916 7.09808 12.4003 7.58341 12.9993 7.58341H36.8327C37.4318 7.58341 37.916 7.09808 37.916 6.50008C37.916 5.90208 37.4318 5.41675 36.8327 5.41675H12.9993C12.4003 5.41675 11.916 5.90208 11.916 6.50008Z" fill="#E02F21"/>
</svg>
