<svg width="49" height="61" viewBox="0 0 49 61" fill="none" xmlns="http://www.w3.org/2000/svg">
<path d="M43.0659 7.46343C43.0659 5.88475 45.4372 5.88475 45.4372 7.46343V44.1239C45.4372 44.7866 44.9065 45.3244 44.2518 45.3244H36.1965V48.7193C36.1965 49.3821 35.6658 49.9193 35.0112 49.9193H25.6862V57.7024H31.8613C33.4208 57.7024 33.4208 60.1029 31.8613 60.1029H17.1403C15.5809 60.1029 15.5809 57.7024 17.1403 57.7024H23.3155V49.9193H13.9905C13.3358 49.9193 12.8051 49.3821 12.8051 48.7193V45.3244H4.7498C4.09516 45.3244 3.56445 44.7866 3.56445 44.1239V7.46343C3.56445 5.88475 5.93572 5.88475 5.93572 7.46343V42.9239C18.3125 42.9239 30.6892 42.9239 43.0659 42.9239V7.46343ZM33.8252 45.3244H15.1764V47.5188H33.8252V45.3244Z" fill="#848484"/>
<path d="M3.56477 42.7318C3.56477 44.364 5.93604 44.364 5.93604 42.7318L5.93604 6.07016L43.0662 6.07016L43.0662 42.7318C43.0662 44.364 45.4375 44.364 45.4375 42.7318L45.4375 4.82952C45.4375 4.14436 44.9068 3.58829 44.2522 3.58829L12.8054 3.58829L4.75012 3.58829C4.09548 3.58829 3.56477 4.14435 3.56477 4.82952L3.56477 42.7318Z" fill="#848484"/>
<path d="M24.9385 26.4829L17.3251 33.0987C19.2101 34.8528 21.7305 35.925 24.4992 35.925C29.8758 35.925 34.4044 31.854 35.0052 26.4829H24.9385ZM15.766 31.2818L23.3035 24.7324V14.7005C17.9687 15.3054 13.9261 19.8653 13.9261 25.279C13.9261 27.5056 14.6056 29.5726 15.766 31.2818ZM25.6949 14.7005V24.0744H35.0052C34.4554 19.1567 30.5795 15.2541 25.6949 14.7005ZM24.4992 12.2244C31.6594 12.2244 37.4643 18.0693 37.4643 25.279C37.4643 32.488 31.6594 38.3335 24.4992 38.3335C17.339 38.3335 11.5342 32.488 11.5342 25.279C11.5342 18.0693 17.339 12.2244 24.4992 12.2244Z" fill="#E02F21"/>
</svg>
