<svg width="60" height="60" viewBox="0 0 60 60" fill="none" xmlns="http://www.w3.org/2000/svg">
<path d="M52.8 24C52.8 22.6752 51.7248 21.6 50.4 21.6C49.0752 21.6 48 22.6752 48 24C48 24.5712 48 41.4288 48 42C48 43.3248 49.0752 44.4 50.4 44.4C51.7248 44.4 52.8 43.3248 52.8 42C52.8 41.4288 52.8 24.5712 52.8 24Z" stroke="#E02F21" stroke-width="2" stroke-miterlimit="10"/>
<path d="M33.6002 56.4C34.925 56.4 36.0002 55.3248 36.0002 54C36.0002 52.6752 34.925 51.6 33.6002 51.6C33.029 51.6 28.1714 51.6 27.6002 51.6C26.2754 51.6 25.2002 52.6752 25.2002 54C25.2002 55.3248 26.2754 56.4 27.6002 56.4C28.1714 56.4 33.029 56.4 33.6002 56.4Z" stroke="#4A4A4A" stroke-width="2" stroke-miterlimit="10"/>
<path d="M9.59961 22.8C9.59961 11.5332 18.7328 2.40002 29.9996 2.40002C41.2664 2.40002 50.3996 11.5332 50.3996 22.8" stroke="#4A4A4A" stroke-width="2" stroke-miterlimit="10"/>
<path d="M52.7998 24C56.1142 24 58.7998 28.0284 58.7998 33C58.7998 37.9692 56.1142 42 52.7998 42" stroke="#4A4A4A" stroke-width="2" stroke-miterlimit="10"/>
<path d="M7.2002 24C7.2002 22.6752 8.2754 21.6 9.6002 21.6C10.925 21.6 12.0002 22.6752 12.0002 24C12.0002 24.5712 12.0002 41.4288 12.0002 42C12.0002 43.3248 10.925 44.4 9.6002 44.4C8.2754 44.4 7.2002 43.3248 7.2002 42C7.2002 41.4288 7.2002 24.5712 7.2002 24Z" stroke="#E02F21" stroke-width="2" stroke-miterlimit="10"/>
<path d="M7.2002 24C3.887 24 1.2002 28.0284 1.2002 33C1.2002 37.9692 3.887 42 7.2002 42" stroke="#4A4A4A" stroke-width="2" stroke-miterlimit="10"/>
<path d="M50.4 44.4C50.4 50.4 46.8 54 40.8 54H36" stroke="#4A4A4A" stroke-width="2" stroke-miterlimit="10"/>
</svg>
