<svg width="36" height="37" viewBox="0 0 36 37" fill="none" xmlns="http://www.w3.org/2000/svg">
<path d="M35.4015 37H32.1811C32.1811 29.0194 25.6814 22.5197 17.7008 22.5197C9.72014 22.5197 3.22046 29.0194 3.22046 37H0C0 27.2446 7.93361 19.2993 17.7008 19.2993C27.4679 19.2993 35.4015 27.2446 35.4015 37Z" fill="#848484"/>
<path d="M17.7008 22.5314C11.4949 22.5314 6.44092 17.4774 6.44092 11.2716C6.44092 5.06575 11.4949 0 17.7008 0C23.9066 0 28.9606 5.054 28.9606 11.2598C28.9606 17.4657 23.9066 22.5314 17.7008 22.5314ZM17.7008 3.22046C13.2697 3.22046 9.66138 6.82878 9.66138 11.2598C9.66138 15.6909 13.2697 19.2992 17.7008 19.2992C22.1318 19.2992 25.7402 15.6909 25.7402 11.2598C25.7402 6.82878 22.1318 3.22046 17.7008 3.22046Z" fill="#848484"/>
<path d="M20.9204 20.9213H14.4795L16.0897 25.7402H19.3102L20.9204 20.9213Z" fill="#848484"/>
<path d="M14.4795 37H20.9204L19.3102 27.3503H16.0897L14.4795 37Z" fill="#E02F21"/>
</svg>
