<svg width="60" height="60" viewBox="0 0 60 60" fill="none" xmlns="http://www.w3.org/2000/svg">
<path fill-rule="evenodd" clip-rule="evenodd" d="M46.2403 25.6038V30.6288L41.884 33.1425L39.3715 37.495H38.7328C38.7328 37.4963 38.734 37.4988 38.734 37.5V56.25C38.734 56.255 38.7315 56.2588 38.7315 56.2638C38.7365 56.5813 38.6203 56.9013 38.3778 57.1438C38.1353 57.3863 37.8153 57.5025 37.4965 57.4975C37.4928 57.4975 37.489 57.5 37.484 57.5C37.084 57.5 36.7428 57.3 36.5153 57.0063L29.984 50.475L23.4528 57.0063C23.2253 57.3 22.8853 57.5 22.484 57.5C22.479 57.5 22.4753 57.4975 22.4715 57.4975C22.1528 57.5025 21.8328 57.3863 21.5903 57.1438C21.349 56.9013 21.2315 56.5813 21.2365 56.2638C21.2365 56.2588 21.234 56.255 21.234 56.25V37.5C21.234 37.4988 21.2353 37.4963 21.2353 37.495H20.6015L18.0865 33.1425L13.7315 30.6288V25.6038L11.2178 21.2513L13.7315 16.8975V11.8688L18.0865 9.35252L20.6015 5.00377H25.6328L29.9828 2.48877L34.3378 5.00377H39.369L41.8815 9.35252L46.2378 11.8688V16.8963L48.7503 21.2513L46.2403 25.6038ZM23.734 37.5V53.2738L28.9715 48.0363C29.0115 47.9775 29.0378 47.91 29.0903 47.8563C29.3365 47.6113 29.6615 47.4975 29.984 47.505C30.3065 47.4975 30.6315 47.6113 30.8778 47.8563C30.9303 47.91 30.9553 47.9775 30.9965 48.0363L36.234 53.2738V37.5C36.234 37.4988 36.2353 37.4963 36.2353 37.495H34.339L29.984 40.0113L25.634 37.495H23.7328C23.7328 37.4963 23.734 37.4988 23.734 37.5ZM43.734 17.565V13.3113L40.049 11.1825L37.9253 7.50377H33.6678L29.9865 5.37752L26.3078 7.50377H22.0503L19.924 11.1813L16.2378 13.31V17.565L14.1115 21.2513L16.2378 24.935V29.185L19.924 31.3125L22.0503 34.9938H26.3065L29.9853 37.12L33.6665 34.9938H37.9228L40.0465 31.3125L43.7328 29.185V24.9363L45.8578 21.2513L43.734 17.565Z" fill="#E02F21"/>
</svg>
