<svg width="58" height="58" viewBox="0 0 58 58" fill="none" xmlns="http://www.w3.org/2000/svg">
<path d="M56.2984 33.053L51.8753 37.294L52.3741 43.4026C52.4425 44.2366 51.9147 44.9999 51.112 45.233L45.225 46.9301L42.8308 52.57C42.5025 53.3403 41.6766 53.7788 40.8622 53.6048L34.8546 52.374L30.1137 56.2542C29.79 56.5187 29.3968 56.6509 29.0012 56.6509C28.6057 56.6509 28.2124 56.5187 27.8888 56.2542L23.149 52.374L17.1403 53.6048C16.3248 53.7811 15.5012 53.3391 15.1717 52.57L12.7775 46.9301L6.89049 45.233C6.09009 44.9999 5.56113 44.2366 5.62841 43.4026L6.12721 37.294L1.70413 33.053C1.09977 32.4754 0.988414 31.5508 1.43501 30.8467L4.71665 25.6708L2.76785 19.8592C2.50337 19.0669 2.83513 18.1981 3.55781 17.7816L8.86829 14.7192L9.84501 8.671C9.97841 7.84508 10.6733 7.22912 11.5073 7.19548L17.6309 6.9542L21.3058 2.05088C21.8093 1.38388 22.7129 1.16 23.4657 1.5196L29.0001 4.1528L34.5344 1.5196C35.2838 1.15884 36.1921 1.38272 36.6932 2.05088L40.3692 6.9542L46.4929 7.19548C47.3269 7.22912 48.0218 7.84508 48.1586 8.66984L49.1354 14.7181L54.4458 17.7805C55.1685 18.1969 55.498 19.0658 55.2358 19.858L53.2882 25.6696L56.5686 30.8456C57.0141 31.5508 56.9027 32.4754 56.2984 33.053Z" stroke="#4A4A4A" stroke-width="1.937" stroke-miterlimit="10" stroke-linecap="round"/>
<path d="M18.2294 26.1859C18.0217 25.5258 17.9521 25.1442 17.9521 22.6432C17.9521 20.1423 18.0229 19.7606 18.2294 19.1006C18.785 17.4685 20.2443 16.4268 22.2233 16.4268C24.2022 16.4268 25.6615 17.4685 26.216 19.1006C26.4248 19.7606 26.4944 20.1423 26.4944 22.6432C26.4944 25.143 26.4236 25.5258 26.216 26.1859C25.6603 27.818 24.2022 28.8597 22.2233 28.8597C20.2443 28.8597 18.785 27.818 18.2294 26.1859ZM24.0978 25.6302C24.2022 25.2834 24.2718 24.7962 24.2718 22.6432C24.2718 20.4903 24.2011 20.0042 24.0978 19.6562C23.8206 18.8581 23.1257 18.4405 22.2233 18.4405C21.3208 18.4405 20.6259 18.857 20.3487 19.6562C20.2443 20.0031 20.1747 20.4903 20.1747 22.6432C20.1747 24.7962 20.2455 25.2822 20.3487 25.6302C20.6259 26.4283 21.3208 26.8459 22.2233 26.8459C23.1257 26.8459 23.8206 26.4295 24.0978 25.6302ZM34.5169 16.6704C34.6561 16.4279 34.7942 16.3235 35.0726 16.3235H36.7395C36.9483 16.3235 37.0167 16.4975 36.9135 16.6704L23.1953 40.3553C23.0573 40.5977 22.9181 40.7021 22.6745 40.7021H21.0076C20.7988 40.7021 20.6944 40.5293 20.7988 40.3553L34.5169 16.6704ZM31.2179 34.4172C31.2179 31.9163 31.2875 31.5346 31.4951 30.8734C32.0508 29.2413 33.5089 28.1996 35.489 28.1996C37.468 28.1996 38.9273 29.2413 39.4817 30.8734C39.6905 31.5335 39.759 31.9151 39.759 34.4172C39.759 36.9159 39.6894 37.2987 39.4817 37.9587C38.9261 39.5908 37.468 40.6337 35.489 40.6337C33.5089 40.6337 32.0508 39.592 31.4951 37.9587C31.2875 37.2987 31.2179 36.9159 31.2179 34.4172ZM35.4902 38.6187C36.3927 38.6187 37.0875 38.2023 37.3647 37.4031C37.4691 37.0562 37.5376 36.569 37.5376 34.4172C37.5376 32.2643 37.468 31.7782 37.3647 31.4302C37.0875 30.6321 36.3927 30.2145 35.4902 30.2145C34.5877 30.2145 33.8917 30.631 33.6145 31.4302C33.5101 31.7782 33.4416 32.2643 33.4416 34.4172C33.4416 36.569 33.5112 37.0562 33.6145 37.4031C33.8917 38.2023 34.5865 38.6187 35.4902 38.6187Z" fill="#E02F21"/>
</svg>
