<svg width="61" height="61" viewBox="0 0 61 61" fill="none" xmlns="http://www.w3.org/2000/svg">
<path d="M26.3534 25.3706C32.0663 25.3706 36.735 20.7019 36.735 14.9889C36.735 9.27595 32.0663 4.6687 26.3534 4.6687C20.6404 4.6687 15.9717 9.27595 15.9717 14.9889C15.9717 20.7019 20.6404 25.3706 26.3534 25.3706ZM26.3534 6.5116C31.022 6.5116 34.8921 10.3203 34.8921 14.9889C34.8921 19.6576 31.0835 23.5277 26.3534 23.5277C21.6232 23.5277 17.8146 19.6576 17.8146 14.9889C17.8146 10.3203 21.6232 6.5116 26.3534 6.5116Z" fill="#E02F21"/>
<path d="M54.3039 44.2296H51.5396V30.1007C51.5396 29.855 51.4782 29.6093 51.2939 29.4864L49.021 27.0292C49.7581 25.6163 49.3895 23.8348 48.1609 22.7905L45.6423 20.6405C44.9051 20.0262 43.9837 19.719 43.0622 19.8419C42.1408 19.9033 41.2808 20.3333 40.6665 21.0705C39.4379 22.5448 39.6222 24.8177 41.0965 26.0463L43.6151 28.1964C44.2908 28.7492 45.0894 29.0564 45.888 29.0564C46.5638 29.0564 47.2395 28.8721 47.7924 28.5035L49.6967 30.5307V44.2296H44.4751C44.2294 34.5851 36.3049 26.8449 26.6604 26.8449C16.9545 26.8449 9.03002 34.5851 8.84573 44.2296H6.57282C6.08138 44.2296 5.65137 44.6596 5.65137 45.151V55.2256C5.65137 55.717 6.08138 56.147 6.57282 56.147H54.3654C54.8568 56.147 55.2868 55.717 55.2868 55.2256V45.151C55.2254 44.6596 54.7954 44.2296 54.3039 44.2296ZM44.7823 26.7835L42.2637 24.6334C41.5265 24.0191 41.4651 22.9748 42.0794 22.2377C42.3865 21.8691 42.7551 21.6848 43.2465 21.6234C43.308 21.6234 43.3694 21.6234 43.3694 21.6234C43.738 21.6234 44.168 21.7462 44.4751 22.0534L46.9938 24.2034C47.7309 24.8177 47.7924 25.862 47.1781 26.5992C46.5638 27.2749 45.5194 27.3978 44.7823 26.7835ZM26.599 28.6264C35.2606 28.6264 42.3865 35.568 42.5708 44.1682H10.6272C10.8729 35.568 17.9374 28.6264 26.599 28.6264ZM53.3825 54.3041H7.43284V46.0725H53.3825V54.3041Z" fill="#E02F21"/>
</svg>
